/* XPM */
static char *_aa5fffca8664683b62560710a3c3d70D4QHG2Ks49PDaGu5[] = {
/* columns rows colors chars-per-pixel */
"64 64 244 2 ",
"   c #382F29",
".  c #39342C",
"X  c #3C342D",
"o  c #3C3633",
"O  c #3D3934",
"+  c #3C3B3A",
"@  c #42352E",
"#  c #46382E",
"$  c #443532",
"%  c #4A3633",
"&  c #443B34",
"*  c #4B3C34",
"=  c #443E3A",
"-  c #4B3C39",
";  c #563A36",
":  c #533C35",
">  c #543D3B",
",  c #5C3E3B",
"<  c #643E3B",
"1  c #3D423B",
"2  c #464134",
"3  c #4B4235",
"4  c #4D4937",
"5  c #44413C",
"6  c #4C443B",
"7  c #4E493B",
"8  c #534235",
"9  c #594537",
"0  c #54443C",
"q  c #5B443C",
"w  c #534B3D",
"e  c #5C4A3D",
"r  c #5A523E",
"t  c #62433C",
"y  c #6A453B",
"u  c #634B3D",
"i  c #6C4B3D",
"p  c #714D3D",
"a  c #6C543F",
"s  c #78513D",
"d  c #3A3E42",
"f  c #563F40",
"g  c #7D3F41",
"h  c #3D4647",
"j  c #454543",
"k  c #474747",
"l  c #4B4442",
"z  c #4C4A44",
"x  c #444B4D",
"c  c #4B4C4B",
"v  c #534442",
"b  c #5A4442",
"n  c #544D42",
"m  c #5C4D43",
"M  c #524649",
"N  c #584648",
"B  c #544D4A",
"V  c #5B4B4B",
"C  c #4C524B",
"Z  c #565144",
"A  c #5B5345",
"S  c #5C5945",
"D  c #55534B",
"F  c #5C554A",
"G  c #57584D",
"H  c #5E594C",
"J  c #474D51",
"K  c #4C5353",
"L  c #49555B",
"P  c #5C5A53",
"I  c #585855",
"U  c #555C5B",
"Y  c #644542",
"T  c #6A4643",
"R  c #634B43",
"E  c #6C4B44",
"W  c #654B4A",
"Q  c #734C43",
"!  c #754946",
"~  c #7D4E41",
"^  c #794E4C",
"/  c #645345",
"(  c #6B5344",
")  c #635946",
"_  c #6B5A45",
"`  c #63554B",
"'  c #6A564B",
"]  c #635B4C",
"[  c #6C5B4C",
"{  c #7C5342",
"}  c #765945",
"|  c #75544B",
" . c #7B524D",
".. c #735C4C",
"X. c #7B5C4C",
"o. c #675653",
"O. c #645D53",
"+. c #6B5E53",
"@. c #7B5753",
"#. c #735D53",
"$. c #59615D",
"%. c #68624E",
"&. c #77634C",
"*. c #7C624C",
"=. c #656253",
"-. c #6B6354",
";. c #6C6A55",
":. c #656658",
">. c #6C655A",
",. c #6D6A5C",
"<. c #746454",
"1. c #7B6553",
"2. c #736955",
"3. c #7C6A55",
"4. c #72665A",
"5. c #7D665A",
"6. c #746B5B",
"7. c #7C6C5B",
"8. c #6E715A",
"9. c #74715D",
"0. c #7B715E",
"q. c #77795E",
"w. c #4E5D64",
"e. c #535E64",
"r. c #5A6668",
"t. c #57696F",
"y. c #656B67",
"u. c #6C6C62",
"i. c #736C61",
"p. c #786F63",
"a. c #6D7167",
"s. c #767264",
"d. c #7C7362",
"f. c #767960",
"g. c #7A7B63",
"h. c #757369",
"j. c #7D7669",
"k. c #7D7A6C",
"l. c #676E71",
"z. c #697779",
"x. c #787B76",
"c. c #82543E",
"v. c #844C44",
"b. c #99474C",
"n. c #835343",
"m. c #855B43",
"M. c #835C4B",
"N. c #8A5848",
"B. c #955A4C",
"V. c #865754",
"C. c #825A53",
"Z. c #A14450",
"A. c #886449",
"S. c #8C634C",
"D. c #94654D",
"F. c #936B4C",
"G. c #97734F",
"H. c #826452",
"J. c #8B6553",
"K. c #856B54",
"L. c #896857",
"P. c #836C5C",
"I. c #8B6C5B",
"U. c #956B56",
"Y. c #84725D",
"T. c #8B765A",
"R. c #8D745B",
"E. c #9B7554",
"W. c #93735C",
"Q. c #99785C",
"!. c #A26556",
"~. c #A27A5B",
"^. c #876D61",
"/. c #837463",
"(. c #8C7464",
"). c #847964",
"_. c #847B6B",
"`. c #897868",
"'. c #8B7C6A",
"]. c #9A7564",
"[. c #957867",
"{. c #9C7B63",
"}. c #987368",
"|. c #947A6C",
" X c #847E71",
".X c #897E73",
"XX c #A37C66",
"oX c #76816F",
"OX c #9B805E",
"+X c #AD855E",
"@X c #84866B",
"#X c #8A866B",
"$X c #98836B",
"%X c #8C8373",
"&X c #8C8C72",
"*X c #888578",
"=X c #938572",
"-X c #978977",
";X c #9C8C74",
":X c #948C7C",
">X c #8F9273",
",X c #9A9178",
"<X c #A3856C",
"1X c #AD8C6D",
"2X c #AF8F6F",
"3X c #B1936E",
"4X c #A68A75",
"5X c #A39276",
"6X c #A4947B",
"7X c #A9977A",
"8X c #AB9B7D",
"9X c #B39472",
"0X c #B69A76",
"qX c #B2A17F",
"wX c #C5A37F",
"eX c #697D82",
"rX c #757E82",
"tX c #6C8186",
"yX c #788786",
"uX c #7C918D",
"iX c #828C88",
"pX c #8D9388",
"aX c #999686",
"sX c #899A95",
"dX c #A79A85",
"fX c #AB9B82",
"gX c #B79687",
"hX c #B09289",
"jX c #99A190",
"kX c #ABA185",
"lX c #B3A385",
"zX c #B4A48C",
"xX c #B9A98B",
"cX c #ACA392",
"vX c #B6A993",
"bX c #BBAC94",
"nX c #BBB39E",
"mX c #94A8A2",
"MX c #BEB6A0",
"NX c #C39D95",
"BX c #C7A783",
"VX c #C7AF94",
"CX c #CABAA4",
"ZX c #C6C1A9",
/* pixels */
"8 K...e %   X . w A %.dX;X( $ : X.* & P ;.z O o : Q.a & D 3 $ * V & n F =.=.P =.1.3XQ._ ;.w ].|.I.R E - $ % O & 5 X u.8X5Xp.=.7.",
"3 5.<.* $   X . r ) ;X(./ * % E 9 X c D D 2 O # 1.*.9 = z o X 0 v & * S ).6.-.2.1.9XQ._ %.w {.[.1.Y ^ > $ ; O = w O ,.fX5Xs.=.7.",
"3 7.<.3 X   . . w =X'.' * % Y : $ j c c 6 O O / T.u # B 7 $ o W b $ 7 ] 0.0.-.;.K.9X{._ 8.w ].(...R N.Q : t O o H O ,.kX5X6.>.d.",
"3 Y.) 6 X       Y.-X<.* % E q X G :.C 5 & o 7 1.A.9 % A 2 O & W , - n ] 6.2.;.-.1.0X{.) ;.0 {.^.' R n.B.{ i O o n O 6.8X5X6.>.d.",
"8 1.[ * X     m ;X<.8 % R ( $ j :.] z O X n / K.a # 6 l $ X - v $ 7 Z H ,.] -.] K.9X{./ ;.0 ].P.#.e N.D.n.E = 5 7 & ,.fX,X,.] 2.",
"8 1./ * X   & -X<.n @ ; E * l C D 6 O o 7 A 3.*.8 X H 7 O X v * @ 7 w =.,.O.,.] Y.0XQ.a 8.0 ].^.#.R T y , * O 5 5 O u.dX,X8.] 6.",
"9 R...8 X X '.(.u % : Y * + I C 5 o . & n ] T._ $ @ ] 7 O X N % $ 6 7 ;.6.-.-.] R.0XQ.r =.8 ].}.H.R q > % $ o + 5 o ,.kX,X,.] <.",
"e {...0 X -.$X| 0 : | q O x j 1 & o & B A Y.*.9   6 n $ . % v @ 6 w Z 6.9.s.-.=.R.9XW./ 8.0 ].(.L.e > > * $ o + + . ,.8X,X,.A [ ",
"m P./ * / ;X[ 8 * E ( 3 h h 1 O X X F A [ T.} %   B 2   . 6 > @ n n F 6.-.F -.] W.3XL.r ;.8 ].(.#.R > * % $ O j = o =.5X4X>.w ) ",
"u {.1./ |.K.u # | E * = U h o . X O.-.<.7.*.q X l F X X $ b * 6 6.6.>.;.H Z %.F R.3XK.r S 3 ].I.( m , ; * $ O N 7 3 ;.8X,X6.A <.",
") [...0 e / : @ R q @ o & z O O 6.%X#X'.Y._ * n ,.w X . @ q * +.%X%X).'._.0.d.[ W.0XI.) S 3 ].W...q E ! y : O F Z 6 -.7X;X6.:XdX",
",X4X;X;X=X).Y.).'.(.=X=X;X-X-X6XfXfXfXfXfX6X,XdXfX6X'.'.#X/./.-X6X6X6X6XfX5X6X=X<X1X$X#X#X'.<X<X[.[.<XQ.W.(./.7./._.;X7X6X,XzXxX",
"S A A ) A w m A r A A A ) ) ) ] ] ] ] ] ] [ [ ] A ] %.[ ] [ ] ] ` ] A A A ) ` A ) ] ] ] ] O.] [ ' ] ] A r A ) ' [ ] ] ] ] ] A ) ",
"6 7 7 w n 7 w w 7 w 7 7 n n 7 7 7 w n n n n A F F F H ] ] ] F H O.] F H F A F F F F A Z Z m P.Y.Y.[ w 7 n n A F H F H F F Z Z n ",
"3 6 w A A A n B w n Z Z A H H O.H A H H ] O.H ] O.O.O.O.=.=.O.] O.O.H ] ] H ] O.] F H F R ^ {.9X{.<.B F F F ] O.] H H F H A A A ",
"Z w e P.7.[ @ * n Z H =.=.=.O.,.=.6 F O.=.=.>.=.=.=.O.6.dX=Xp.4.>.O.] =.] Z A A F A A m E ! 1XlX<X1.A A A A ] ] S S S A m 0 e : ",
"A m w <.[ m X X 2 H O.=.=.=.P O.O.z aXpXx.:.>.7.dX|.^.P.7X`.<.,.,.,.=.,.h.u.u.O.H ] ] ` E T 1XBX1X..% |  .| a E.E.E.G.F.( 0 0 > ",
"n A 0 3.<.` q b W A F ] +.O.D  X=.z jXaXk.Z O.4.hX|.5.#.5X/...5.] =.O.z.sXtXt.o.#.] ] F R T 1XBX1X_ X b > > * G.E.F.F.A.a - 6 - ",
"3 n 0 7.7.R V.V. .N U r.y.P H ,.O.z jXaXk.n ` +.vXhX;X5.6X/.X.X.e A z r.uXx.U V Y R )._.'.|.9XBX1X( X - - $ @ m.m.c.s p q 0 0 - ",
"- A 8 ..[ m V.V.^ M L J h j +.>.>.C jXpXx.6 w ] NXgX4X5.=X1.Q X.* 6 = r.uX.XI N > / '.7.<.<.<XwX1X( X * - $ @ S.E.S.A.{ u 0 v : ",
"& ` * [ +.> V.V. .l J x h j D ,.O.c sXsXoX2 3 m NXgX4X5.=X<.R H.* 3 $ r.uXz.L M > m _.4.-.] <XBX1X_   * * $ # E.+XE.F.F.u m m 8 ",
"2 ] * ) / : V.V. .z K x h j B =.F c sXsXx.3 w ) hX4X(.#.'.+.R | 8 8 & $.uXz.w.M > 0 ).-.-.' $XBX1XX., q > : : D.F.S.A.m.t e 9 : ",
"2 -.6 ' ' 8 @.V.^ B K J J c P >.O.B aXaXx.0.0./ |.[.5.#.'.' Y T [ [ w D z.z.r.M > 0 '.6.6.-.$XBX1XB.Z.v.N.{ i N.n.{ { p 9 0 0 * ",
"2 -.* [ ' * @.V.^ l x x h k D O.F z aXaXh.Y.K.9 |.(.7.+.=X<.T E 7 6 $ 5 z.eXw.v > 6 ).2.-.] [.BX1XM.B.~ N.n.p n.c.s { p : 0 e * ",
"2 +.* ' ' * @.V.| M I :.j k B k.O.z aXaXh.T.K.e |.|.^.+.'.+.E X.l 7 & j eXeXt.N Y 0 '.'./.<.R.wX1XM.!.{ n.! i U.~.E.F.A.q 0 0 * ",
"2 4.* / R : ^ Q Y z $.I K j B H n z aXaXs.Q.K.e |.4X^.' '.' E | * 6 & 5 z.tXt.M q 0 '.).0.[ R.wX1XM.!.n.N.{ i M.F.A.m.{ 9 0 0 * ",
"3 4.$ ' m * ! R Y c K J k z O.>.=.D aXaXs.T.&.u |.[...' /.` Y T 6 = o = z.tXt.l b 0 _.6.-.[ W.BX1XS.b.v.N.n.y N.n.~ p p 8 0 0 * ",
"6 6.$ m e % | R b z K x k z D s.H c aX,Xs.T.&.R |.(.[ +.`.m R T 6 3 $ = z.eXt.M f 8 =X/.2.<.R.BX1XB.b.v.v.~ y m.m.c.s p : 0 e * ",
"3 6.% ) m % ! Y Y l U $.c c F i.O.B dX:X9.Q.*.u |.^.' ' (.m E X.3 7 & = eXtXt.l > * '././.<.L.BX3XS.B.~ n.v.i G.~.E.F.S.8 q b * ",
"3 6.& ) m % ^  .E l :.:.z c P ,.H D aX:Xu.R.*.e (.P.[ ' P.R E X.7 3 X O z.z.w.M > * d.0.2.+.H.BX9XJ.B.n.B.B.i n.c.m.m.p * 8 0 % ",
"* 7.% m 0 % ^ ^ T l K G d c O.>.O.G aXaXu.R...e (.^...' 3.m T E 0 n & + z.tXt.l > & p.d.>.-.H.BX9XJ.U.{ Q Q 9 ~ n.{ ~ i * 0 N * ",
"2 4.* ' / : ^ ! R l c K + B P O.B G aXpX,.T.*.q |.[.#.[ Y.R T T n A 2 & l.eXw.l > * /.d.<.4.1.BX9XJ.B.p : ; * N.S.S.m.} * 0 v & ",
"2 4.8 ..) : ^  .T B K x c c P O.B P aXaX,.Q...q [.|.#.#.|.' i } 0 F $ O t.z.w.l > * '.'.'.<.K.BX9XJ.B.Q * % # S.G.D.S.A.: m R * ",
"* +.6 ) R % ^ @.T j J x d z >.=.H H aX-X,.OX1.q |.(.[ ' (./ E M.0 6 X o t.z.w.l > & _.0.<.4.1.BX3XS.B.s % % # ~ n.n.s p * m / & ",
"& F 0 1...0  . .E = x h d c  Xg.s.,.dX:X,.W.X.q |.P.' #.$X..! X.8 6 X o r.x.e.l t * /.-.A 7.&.BX9XJ.b.! ; : # { N.n.s p * / ' & ",
"F 6./ P.*.e C.L.#.G r.r.K P j.k.,.6.aX&X6.[.*.u |.R.5...[...X.L.9 m * & l.yXl.N T 8 #X'.Y.'.K.BX0XJ.b.g < y ; G.+XG.F.F.8 ' ..% ",
"bXVXbXVXVXCXCXCXCXCXZXMXMXCXbXvXbXnXMXVXvXzXzXzXvXxXzXzXkXzXbXVXvXfXdXfXcXcXcXdX6X,XvXvXzXvXfXBX0X{.].U.].XX[.<X<XOXOX<X1.<.<./ ",
"7XfX6X;X5X,X6X5X;X;X6XfXlXlX8XfXfXfXfXfXkXkXfXfX7X5X6X7X7X6X6X7X6X6X6X6X8XfXfXfXfXfX6X5X5X5X6X6X5XfXfX7XfXfX7XfX7X6X6X5X,X;X;X;X",
"4 4 w w w w w w n w w w w w w w m m w 0 w w w 3 6 3 6 0 w n A B A A A F A ] H H ] ] H F A A w 7 2 7 7 w w w 6 3 2 3 3 3 2 4 6 w ",
"n n Z A Z A H F Z n Z Z A F F D Z n Z B Z F A A A A F F H ] O.H H A A F ] ] O.H H ] F F n w 6 3 3 6 6 2 3 2 6 7 6 3 2 3 6 6 6 3 ",
"n B A F F ] H ] Z n A F H [ H.| @.#.A n Z Z F A F A F >.>.A F ] ] O.6.6.] O.H F F H F F Z n n n w w w w n n n n 6 6 w n 7 n n w ",
"w n F O.k.*Xs.>.n w &X_.9.[ | Y q > n Z F H ] ] H $ n j.H 6 F _.A n 6.-.H H F A F F F F F A F A F A Z n n Z A A n m e 0 A F A F ",
"u.a.y.u.pXpXs.>.. 6 >X@X;.` b - $ & A ] ] ] ] ] H & H %X=.7 d.dXm F -Xj.F F A A F F F F F F F F F F F H H F H ] A R E * A H F F ",
"iXiXl.U x.*XO.<.* 7 >Xg.;.] 0 - $ $ <.4X$X(.3.>.-.3 O.-X-.F 6.cXm ` %X_.] ] H ] O.O.` F F ] O.O.] ] O.>.>.>.6.>.H 9 u @ n >.>.O.",
"iXsXrXy. X*XO.L.( w &Xf.:.[ 8 - $ X *.1X].X.E #.` 6 >.-X=.H p.cXn ] _.d.] ] ] ] ] ] +.O.] O.=.-.-.+.=.>.>.>.6.>.A u ( @ o V V - ",
"iXmXsXz.x. XH C.u w &Xg.;.[ q > % $ ..<X.X[ q Y % 0 i.:X>.A j.dXB :.d._.=.+.+.] +.+.=.=.>.>.6.>.-.>.>.6.6.>.6.6.] u E @ $ N V = ",
"iXmXsXl.j. Xn C.( w >Xk.;.] E t : ; _ <X|...e v $ 6 ] _.D A O.%X7 O.j.s.>.;.-.>.>.>.>.>.;.>.6.;.>.>.2.6.6.4.6.6.-.9 , @ $ V o.6 ",
"iXmXiXl.h.s.7  .R w >Xg.;.S B.D.n.E ( 4X].M.q v $ = 4.%XF D >.:X3 O.%Xs.;.6.6.6.2.6.6.6.6.6.6.6.6.6.0.0.6.0.j.s.-.q q X & W V R ",
"a.yXl.I h.s.l  .0 w &Xf.=.] B.B.{ y ( <X].H.9 0 $ 6 4.%XH F =.:X7 H %Xj.-.6.6.9.6.6.s.9.s.6.6.6.6.6.d.0.d.j.).).;.q E @ $ ` m & ",
"U x.y.U h.j.7  .: 6 &Xg.;.S N. .Q Y / (.].X.0 v @ 3 =.%XH O.=.%X= F %Xs.] -.-.2.6.0.6.6.0.6.6.6.6.0.0.0.s.s.d.s.-.u ( # * #.<.* ",
"U x.l.I h.k.7 C.: 7 &X&Xf.A  .> : ; R {.Q.H.9 b * - =.*XH n >.j.v F  Xi.] %.%.-.6.0.0.0.d.d.d./.d.d.0.0.0.0.0.0.-.q Y $ * #.+.b ",
"U iXrXI h.s.6 L.0 7 @X@X;.w Q $ $ * R ].XXS.q W * 6 4. XH F >._.& B .X6.] %.-.>.2.0.j.0.0.d.).).).d.0.0.7.7.0.d.-., > @ * ` o.0 ",
"U yXl.c h.>.3  .> 7 &Xg.=.w n.* $ ; 9 W.XXJ.: b $ 6 4.%X] F -._.0 z s.6.A _ *...*.1.%.&.<.1.K.H.H...H.*.1.H.K.Y.-.Y 9 o * W N b ",
"r.rXr.c i.>.&  .- 7 @Xs.S m N.i ; t 0 I.{.M.8 b % v >. XH A 6._.& z i.>.r _ W.S.D.{...&.[ ..Q.m.N.c.D.S.M.D.S.W.[ E u X 0 #.o.> ",
"$.z.e.K h.,.& C.0 7 @X9.S e N.D.n.t 0 ].{.J.9 v $ - O.k.F >.i.j.$ D _.4.r a *.{ { H.( _ e e ..i { i Q i | M.} *.[ | u X w P...8 ",
"$.z.e.K h.O.3 I.9 7 @X9.=.w B.N.{ q 8 ].Q.A.9 0 $ 6 O.j.F B ] >.= 7 ,.=.A } R m u / e e / 0 8 e t : , R t t u 9 [ R q X 8 5.' % ",
"U z.r.c u.:.& C.0 7 @Xq.=.w y t : % 8 ].XXJ.9 > $ & >.:XH O.d. Xo F :X6.A P.#.-.3.1.<.7.3.m b ..E 9 R #.R t ..5.&., : X v o.0 $ ",
"$.rXr.c h.P - ! * w @XoX;.w > * % X 3 W.Q.X.0 > @ 6 6.:X] j._._.& ] '.] w ( m m m m 9 R ' : - e e : q ( u i u u A u 9 @ / ` 8 q ",
"r.rXr.c k.,.3 C.0 4 @Xg.;.w > - % $ 3 L.I.} : f $ - -.:XA p.7.'.& O._.H r R.I.W.1.@.I. . .U.W.W.W.I.U.Q.Q.~.~.I.` } R @ N V = % ",
"r.rXy.c k.,.3 J.9 4 @Xf.=.w ; * % $ * I.W.X.: > $ 6 +. XO.j.6.s.= F .XO.r *.P.(.@.@.W.C. .I.W.W.I.U.E.U.U.Q.Q.L.] Q u @ M N = . ",
"r.z.e.c  X6.3 M.0 7 @X8.S w < > ; @ * L./.[ : > % 0 =._.] >.6.>.= B d.O.A ..R / / q R b q R R ( ( u ( ( A.M.} u e | i $ v M $ X ",
"r.z.r.c *Xs.7 U.t 4 @Xf.=.w ! T y > * I.[.1.; T : w 4.:X>.p.%X_.n j.dX/.7./.e F 4.m N n ` m 0 #.[ : b ..~.E.} ` ] X.u * P :.F l ",
"aXpXpX:X:X:X%XfX-X_.&X&X%X).(.|.(.`./.;X;X'.5.5...<.T.;X0.1.Y.3.[ 2.7.7.,XY.7.7.3.<.<.6.4.<.#.<.1.<.7.7.W.R.P.P.bX7XfXvXbXvXvXvX",
"6X6X;X;X;X7XfXfX7XlXzXfXfXlXlXlXkXlXkXlXlXlXlXlXlXlXxXlXkX7X6X7X6X8X8XfX8X8XqXlXxXxXxXxXvXxXlXlXlXlXlXlXlXlXkX8X7X7X6X;X;X;X;X=X"
};
