/* XPM */
static char *c7c998afe3464a3bfa123d4a0888a77f4M4sc8j0oQzdmvkw[] = {
/* columns rows colors chars-per-pixel */
"64 64 253 2 ",
"   c #0A0706",
".  c #0F0A09",
"X  c #140C0B",
"o  c #1A0F0C",
"O  c #17100C",
"+  c #1C110E",
"@  c #1E1411",
"#  c #1C1A15",
"$  c #200F0D",
"%  c #22130D",
"&  c #29160F",
"*  c #231612",
"=  c #291711",
"-  c #261914",
";  c #2B1B15",
":  c #261D19",
">  c #2C1D19",
",  c #311D16",
"<  c #311F19",
"1  c #2D211C",
"2  c #34221C",
"3  c #39251D",
"4  c #3A281E",
"5  c #342521",
"6  c #392721",
"7  c #352C23",
"8  c #3C2A24",
"9  c #3E2C29",
"0  c #3C3127",
"q  c #42291D",
"w  c #422D24",
"e  c #4A2E22",
"r  c #412F29",
"t  c #4D3226",
"y  c #45322C",
"u  c #4A352D",
"i  c #48372C",
"p  c #513526",
"a  c #533629",
"s  c #55392B",
"d  c #5B3C2C",
"f  c #403730",
"g  c #4A3730",
"h  c #4D3B33",
"j  c #523C34",
"k  c #5B3E32",
"l  c #553F38",
"z  c #613E2E",
"x  c #5C412E",
"c  c #4E433D",
"v  c #534134",
"b  c #5D4334",
"n  c #55423B",
"m  c #5B443B",
"M  c #564A3E",
"N  c #5C4A3C",
"B  c #67432D",
"V  c #644434",
"C  c #6A4735",
"Z  c #6D4A35",
"A  c #61463A",
"S  c #644A3D",
"D  c #6B4B3C",
"F  c #764C36",
"G  c #724D3A",
"H  c #66523E",
"J  c #6C513C",
"K  c #7A553B",
"L  c #5A4841",
"P  c #5C4B43",
"I  c #5E5145",
"U  c #644B42",
"Y  c #6A4E43",
"T  c #614E4B",
"R  c #784F44",
"E  c #675646",
"W  c #6C5245",
"Q  c #63534A",
"!  c #6D5349",
"~  c #6D5A4C",
"^  c #745443",
"/  c #7A5542",
"(  c #755A45",
")  c #7C5A44",
"_  c #72544A",
"`  c #7D564C",
"'  c #735B4B",
"]  c #7C5C4A",
"[  c #6C5C53",
"{  c #6A5955",
"}  c #755D54",
"|  c #7A5D52",
" . c #715F5D",
".. c #6A6146",
"X. c #76614D",
"o. c #7D624D",
"O. c #6E6255",
"+. c #746153",
"@. c #7C6353",
"#. c #74645A",
"$. c #7B645B",
"%. c #7B6958",
"&. c #7C6B5C",
"*. c #776764",
"=. c #7A6A64",
"-. c #7B7265",
";. c #83563F",
":. c #835A3B",
">. c #91623E",
",. c #845D44",
"<. c #8A5D42",
"1. c #845D4B",
"2. c #8A5E4B",
"3. c #905E4C",
"4. c #8D6245",
"5. c #83624B",
"6. c #85654A",
"7. c #8B634D",
"8. c #9A6645",
"9. c #92654B",
"0. c #966848",
"q. c #956A4B",
"w. c #9A714E",
"e. c #846453",
"r. c #8A6553",
"t. c #846955",
"y. c #8C6A54",
"u. c #856559",
"i. c #8B675A",
"p. c #836B5C",
"a. c #8B6B5B",
"s. c #936553",
"d. c #946B54",
"f. c #9B6C54",
"g. c #956759",
"h. c #946D5A",
"j. c #9A6D5A",
"k. c #85725D",
"l. c #8C7559",
"z. c #8C725C",
"x. c #957255",
"c. c #9B7255",
"v. c #94735C",
"b. c #9B735C",
"n. c #977959",
"m. c #9C7B5D",
"M. c #A26D4D",
"N. c #A4774E",
"B. c #A36D54",
"V. c #A6665B",
"C. c #A26D5B",
"Z. c #A27354",
"A. c #A3745C",
"S. c #A87758",
"D. c #A37B5D",
"F. c #AA7C5C",
"G. c #B57B5A",
"H. c #876D61",
"J. c #8C7563",
"K. c #897866",
"L. c #937462",
"P. c #9A7462",
"I. c #957C64",
"U. c #9C7B63",
"Y. c #947669",
"T. c #937C69",
"R. c #9C7B6A",
"E. c #927F72",
"W. c #A37462",
"Q. c #A97661",
"!. c #AF7066",
"~. c #A47C63",
"^. c #AC7C64",
"/. c #A37C6B",
"(. c #AC7D6A",
"). c #B27D64",
"_. c #B57B68",
"`. c #C07D59",
"'. c #93855B",
"]. c #A7855E",
"[. c #B8825C",
"{. c #9B8269",
"}. c #9A8573",
"|. c #A48364",
" X c #AB8364",
".X c #AC8B66",
"XX c #A4846B",
"oX c #AC846B",
"OX c #A58A6D",
"+X c #AC8A6C",
"@X c #B38265",
"#X c #BC8364",
"$X c #B18C67",
"%X c #B98B61",
"&X c #B4836A",
"*X c #BB866B",
"=X c #B38C6B",
"-X c #BB8B6C",
";X c #AE9869",
":X c #BB9064",
">X c #B3926B",
",X c #BB936E",
"<X c #A58774",
"1X c #AC8672",
"2X c #AD8C73",
"3X c #B48B73",
"4X c #B58875",
"5X c #BC8C74",
"6X c #BA8E7A",
"7X c #AE9774",
"8X c #BD9373",
"9X c #B79877",
"0X c #B5937B",
"qX c #BC917B",
"wX c #B1A876",
"eX c #C38969",
"rX c #D38E67",
"tX c #CA966C",
"yX c #D4996A",
"uX c #C28D74",
"iX c #C68D74",
"pX c #D58D79",
"aX c #C29375",
"sX c #CB9374",
"dX c #C3947C",
"fX c #CA957A",
"gX c #C49A7B",
"hX c #CC9B7C",
"jX c #D59978",
"kX c #E19B74",
"lX c #CFA173",
"zX c #D9A679",
"xX c #E4A778",
"cX c #E2B47E",
"vX c #BB9883",
"bX c #B2B082",
"nX c #C39B85",
"mX c #C79A85",
"MX c #D49E84",
"NX c #D99D81",
"BX c #C9A486",
"VX c #CBA28D",
"CX c #D4A382",
"ZX c #D9A68A",
"AX c #C9A892",
"SX c #D2AF94",
"DX c #D6B395",
"FX c #E2AC88",
"GX c #E6B688",
"HX c #D8BBA7",
"JX c #BFC79F",
"KX c #DAC3AE",
"LX c #E7D1B2",
/* pixels */
"5X5XuXuXaXuXuXuXuX*X*X*X#XeX#X#X#X*X*X*X*X#X#X#X@X).).^.).).).&X&X^.&X XoXoXoX^.oX X^. X^. XoXoXoX(.~.^.~.oXoXoX~.^.^.(.oX1XoXb.",
"* * * * * * * * * * * * * - - - - ; - ; ; ; , 2 3 3 3 3 4 8 6 3 3 3 3 2 2 2 2 > ; > > ; - - - - - - - - - - - - * * * * * * * z ",
"X X X X X X X X X X X X X X X X X X X X X X X o % * = * ; - ; ; ; ; ; - * * @ + + + + + + + O X X X X X X X o X X + + + O X X s ",
"- O @ @ X X O X X X + X - * 1 > @ 2 @.+.( ( 5.' b % - - ; ; ; ; ; > ; - - % % @ + + + + + X X X X X X X X . N [ [ #.=.#.~ -.*.o.",
"3X0X1X1X}.E.gXgXoX1XqX3X*XZX-X XmX@XtXFXFXGXtXGXc.% - ; ; ; ; ; > > ; ; ; * @ 0 2 8 > 1 2 ! p.@.U 1X1X^ m A %.$.~ &.#.{ K.<X}.6.",
"(.4X&X^.4X1XaXfX_.6XuXMX&XdXQ./.6Xj.zXGXGXGXtXGXq.% ; ; ; ; > > ; > ; ; ; * * 7X9Xl.S 9XOXy.R.i.V zXtXG.jXeX@.#.E %. .Q J.<XI./ ",
"(.1X&XQ.nXdX&X5X/.4X_.mX&X6X^.oX3Xh.&XCXCX8X%XxXq.* ; > ; ; ; ; ; < > ; ; * + #.&.~ N K.@.p.{ U i fX#XG.xXrXv.U.%.k.J.+.I.OXU.) ",
"U.XX XA.8X-XoXoX~.+X~.8XD.qX^.~.0Xf._.*X_.!.G.xXq.= ; 2 < ; > > 2 2 2 2 ; * + O.-.Q f K.O.k.E.~ i CX#X[.CXtXv.L.p.k.k.~ I.L.I./ ",
"U.|. Xc.-X X~. Xv.m.h.3Xg.aXQ.^.2XZ.uXiXiX).S.xXw.; ; > > > > < 3 3 3 ; 2 ; % l.7X..0 wX'.~ l.( 7 bX;X].zXtXx.k.@.k.&.~ I.I.l.5.",
"~.XX@XA.=X=X.X=XD.|.d.-Xd.qXoX(.vXZ.eXNXsX#XN.xXq.= ; 2 2 2 < 2 3 3 2 > 2 ; % Q }.P 7 {.O.v x.n.7 JXwX].sXeXx.I.t.l.z.X.I.7Xn.6.",
"^.&X@Xb.3XaX3X5X X3XW.gXZ.4XQ.P.1Xs.iXjXsXG.Z.zX>.= ; 2 < 2 2 2 8 3 2 ; 2 ; % ~ {.P 0 k.~ W qX=Xg hXsXG.xXyXy.&.~ &.+.P I.}.p.,.",
"&X*X5XA.fXNXeXMX*XmX(.ZXS.6XQ.W.6Xf.fXFXjX).q.zX>.* ; ; 2 2 2 2 8 2 2 < < ; % Q -.I 7 &.[ m dXmXa ^.*XB.jXeXe.#.Q &.[ n T.T.J./ ",
"A.oX&Xf.sXsX*XfXQ.&Xf.gXA.6XQ.~.0Xg.aXjXsX#X9.yX:.; < ; 2 2 2 2 2 2 2 2 > - % S {.H 1 l.k.N MXsXV *XaXS.kXrX6. .P &.[ c }.T.J.) ",
"x./.=Xx.-XuX,XgXU.|.7.5Xd.5X).).nXC.fXNXsXiXq.yX:.2 3 2 2 3 3 3 3 3 3 3 3 > * v K.N : k.@.n p.o.7 N ~ Z rXeX] [ P &. .c {.{.%.( ",
"h./.=Xy.8X,X-XlXd.v.) =Xq.*XS.W.5Xj.fXZXhX-X4.yX:.q q q w 4 4 4 3 q q w 4 2 ; N K.P 1 K.O.f Q I 1 n ~ Z yXrX1.{ P &.{ c T.{.%.^ ",
"b.oX=X7.-XsX-XhX^.-X7.gXA.6X~.(.vXx.gXZXNXeX4.yXK e t q e e e e 4 e e t e q ; v &.M : &.O.i dX-Xb b.hXS.jXrX5. .Q &.#.M T.T.@./ ",
"^.5X5Xs.*XsXeXZXeXhX2.hXB.5XA.A.6Xd.mXhXfX#X4.zX:.d B d d s s s t a s B d q , j H.N * =.O.r VXVXm h.1X9.rX`.5.K.+.#.K.U T.<XT./ ",
"@X5X5Xy.-XhX-XZX*XhX1.hX@XDXCX&X*X^.hXZXhX#Xq.cX:.f.M.8.8.8.8.8.M.S.G.[.G.8.B G OXS : J.%.w SXDXJ.0XDXBXjXrX7.+.[ %.*.L K.<XL.) ",
"G.).*Xj.@XaX@XfXeXhX7.gXF.aX&X^.oXd.P././.d.c.zXF. X@X).G.[.G.G.[.#X[.eXeX[.S.9.+X5.b .X|.C BXDX3X|.=XF.sXeXv.K.p.T.p.' {.T.l.,.",
"Z.B.M.M.B.B.B.Z.Z.Z.S.S.S.Z.Z.B.f.f.f.f.f.j.j.f.f.f.f.f.f.f.f.f.f.f.f.f.f.d.d.g.h.h.x.v.h.v.v.h.x.b.h.x.x.h.j.x.x.j.g.j.d.d.f.<.",
"w t t a s s s k k b b b b b b A A A A S D A S A D S S Y D D D D S S D Y ^ W D W W W W W S S S A m S m m n m m n v v v h g y y C ",
"o + + % % % * * * * @ @ @ * @ * * * @ @ * * * * ; ; ; ; * - - - - * * ; ; * * * * - ; > - * @ X + X                 # I ; : - b ",
"X X o o o o + + o + + + + @ @ + + + + + @ + + * * * * * + * * * * * * ; * % * * * - ; ; - - 2 h 1 5 U Q ! S m m h h ~ ~ N.,XF.>.",
"X   X X X X o X o o o o o + + + + + o + + o + + + % + + + % % % * * % * % + + % * * ; ; ; - j 1XvXv.U.~.Z ~.^.S +X=XJ X.S.[.w.8.",
"N @ .   X X . X . . . X X X X X o o X X X X X o o o o o o + + % + + o o o o o + + + ; * - * S i.r.t r.y.V s.s.k u.b.C p.].%XZ.>.",
"t.W ' 9 7 0 8 7 > - : - X X . X X X X o O + + X X X X X X o o o o X X o X X X X X o % * ; * ' r.) 2 e.r.Z h.r.C P.A.K b.f.F.N.>.",
"$.2.g.P.2Xo.&.( XX] v.L.@.E M L ! o.J o.@.( } i ; : 3 y ' ' . X X o + * + + + @ + + * * ; 3 b.n.J > U.m.C v.a.J oX^./ A.x.Z.Z.8.",
"H.P.W.b.oXe.k.t.P.' @.a.Y.X.}.}.G $XZ.b.~.7.L.U.0X0XoXZXaX0X. @ * e.L.U.0XqXv.^ +XXXC > ; j h.x.k > y.b.Z y.e.C ~.~./ D.C.pX!.8.",
"T.b.j.+X0Xz.p.! h.@.t.a.} E J.&.N H.] s.r.] a.] a.a.1.MX-XqXp.v.~.a.}.e.W._.^ ^ CX&Xd ; ; D v.d.w > h.h.F d.e.V P. X<.b.s.!.V.3.",
"t.b.Q.v.OX@.&.! P.Y t.v.t.o.J.&.( I.e.h.j.o.H.] i.u.7.ZX@X&Xf.f.W.a.Y.7.W.&XK ^ hXf.t ; ; ] m.1.* ; v.b.F h.y.C +X$XK b.9.s.` ;.",
"l.g.W.h.u.@.k.@.P.' e.U.R.v.9X{.7.gX Xb.~.e.L.5.U.z.y.hX&X&XW.A.W.oX}.b.8X8X7.) zX.Xs ; 2 r.Q.<.+ ; r.S.F j.5.d ^.).Z j.9.r.A :.",
"p.j.C.qXP.@.T.@.L.' a.U.U.z.XXI.5.8Xc.b.|.5.R.] XXU.f.hX&X^.&XB.Z.5XU.v.dX8X9./ aXD.p , i W.j.d X ; j.b.V j.7.d A.9.Z h./ h.^ ;.",
"_ j.(.oXP.@.{.+.R.@.a.v.z.t.9XOX) gXn.P.U.y.R.e.XX{.d.fX5X^.@XS._.5Xv.L.qX5X4.e.nX~.d < b W.1.4 X ; g.j.d 1.7.s b.S.Z b.9.@Xr.,.",
"@.7.s.7.~.z.K.' U.o.t.v.XX' OXK.v L.W @.v.e.J.^ L.z.d.hXqXA._.S.~.oXP.oXdX1Xd.r.qX~.a > / &Xd.- + ; x.-XZ d.7.k ~.c.Z j.9.tXZ.4.",
"' A._./ b.] <Xt.P.E | L.L.U p.[ j H.S e.i.e.L.^ J.P.d.uXaXf.).B.W.1Xa.j.4X6X] 1.vXA.p 2 y.A.K + O , j.A.Z s.5.s d.1.C A.8.eXZ.4.",
"t.b.C.R j.] a.' L.~ o.U.U.' vX<X( 0Xa.e.y.e.a.] P.u.P.*XhXs.Q.j.b.4Xh.h.4XnXG 1.vXb.a t e.i.a % + ; 5.r.d s.] a h.] k A.4.Z.1.<.",
"p.g.!./ b.e.L.' L.~ ] ~.0X' 1XR.^ aX] a.b.] p.^ Y.a.oX5XVXs.).C.W.5Xd.1XnXnX^ h.nX~.s A a.1.q * = , e.y.d f.) p y.5.x b.<.Z.Z.<.",
"I.h.(.^ b.] J.! H.~ e.@XqX] vX0X( aXd.i.h._ @.^ R.a.A.#XDXg.@XC.h.4Xe.i.4X~.C y.vXD.a C u.^ , , ; = ] e.a 7.,.t y.e.d g.q.S.S.<.",
"H.1.j.A u.D L._ H.! e.D.qXS L.p.n P.Y 1.h.' +.D Y.u.D.).SXs.Q.C.h.L.] i.R.P.k d.(.f.s ^ r.Z 2 e , * ] e.z e.9.a y.] d s.8.Z.G.<.",
"p.h.3X' a.^ L.v.L.E y.-XaXJ.DXAX+.&.W y.h.' ' ' Y.a.HXKXHX X=XC.s.|._ d.OXb.b d.^.4.) ] 1.d ^ r.C 3 R u.d 7.2.q y.e.d d.Z.BX:Xq.",
"OXD.hX5.z.5.OXt.XX' y.@XCXOXLXLXJ.a.y.|.XXe.y.y.vXU.AXAXmX^.aX^.b.0Xb.n.3X X) ~.BX X7.R.y.C A.^.~.G e.R.V r.r.p v.v.Z ~.c.gX,Xw.",
"6XnXVXnXqXnXvXBXnXnXnXVXnXnXBXgXgXdXnXnXnXdXqXqXqXdXmXMXVXMXVXVXmXSXVXVXAXVXmXdXnX5XG ' d.v.qX5X4X~.a.U.,.y.' ^ n.x.K v.Z.%X[.9.",
"h.x.d.g.d.d.d.d.d.d.h.v.x.x.c.f.c.b.x.d.d.x.x.b.A.b.c.f.f.9.y.y.r.d.d.f.c.c.w.Z.f.d.c.b.D.D.~. XF.D.D.D.b.U.b.v.a.y.d.d.d.,.<.x.",
"o + + o + $ % + + + o o + o o % % % % % % % % % & & % % & % % % % = & % % & ; ; ; ; ; ; & & = % % % % % + % % $ o + % % % % o t ",
"* * * * * - - * ; % * - ; * * * ; ; ; , ; ; ; ; ; ; ; ; ; ; ; ; ; , , ; ; , 2 2 , , , 2 , , 2 , , ; ; ; = * * * % * * ; % % * t ",
"G Z D V d / ) K t X.' W b ' ( H i ; ; ; < 2 ; ; ; ; 2 2 < ; ; ; ; < < , < < 2 2 3 2 2 2 2 3 3 2 2 2 , ; - ; < 6 6 8 6 ; y 8 3 s ",
"q.q.g.1.4. XF.D.V m.x.x.,.|.m.b.J ; ; * * < < ; ; ; 1 2 2 2 < > , 2 2 , 2 2 3 3 4 2 2 3 2 3 3 2 2 2 < ; - ; ; b W ! i 2 ' o.n a ",
"w.9.b.Y d.,X=X XV |. Xx.6.~.>Xb.J - > > 1 ; 2 ; 2 ; 2 2 2 3 2 2 3 2 2 < 2 2 3 3 8 8 3 2 3 3 3 2 2 2 ; > > ; ; ' v.U.A y l.n.W k ",
"Z / r.D K D.f.7.t |.m.x.7.D.m.x.S - ; > 1 > > 1 2 1 5 2 5 2 5 6 6 3 3 2 6 8 8 6 6 8 8 2 6 8 6 5 2 2 5 > : * - @.L.J.! 8 U E y d ",
",.d.U.) 4.3X Xx.s |..XD.x.|..Xn.W - ; > : > 5 5 5 5 8 8 6 6 8 3 8 8 8 8 8 9 8 8 8 3 6 2 2 8 6 6 5 5 5 1 > * ; ~ =.$.U e @.p.a d ",
"K 9.~./ <.+X~.y.a >X$X.Xx.>X+X].J ; ; 2 5 2 8 8 5 5 9 r 9 9 8 y r w r 9 r r w w w y y 9 y r 8 9 9 9 w 6 2 > ; { {  .n w W ~ i s ",
"G 9.A.F <. Xm./ i +X$X|.n.+X$XD.S > 1 3 6 8 9 9 9 8 y y y y y y y y y y y y y i y w 8 r i y r y 9 r r 8 5 > ; { *. .T y U +.0 s ",
":.Z.].:.9.$X X7.i XX|.D.n.|..Xb.m 1 3 8 w w i i i r i y g g r y h g h h j j h h g h g y y i g g y y y y r 2 ; T =.=.Q h Q %.8 a ",
"K d.D.F <.D.v.) y |.|.U.U.|.|.v.i 3 6 w i i h i j i h h h h l n n n j n m n h j j j l h n j j j h h g i y 3 ; L =.*.T h I ~ y a ",
"K _ h.F c.~.D.<.i oX.X~.~.+X+Xb.i 6 w y i j g j m n m n n n m L m A m m N A n m N n g m m m N n j h h y y w < n =.*.P j l.{.J a ",
"5.! h.F F.=X=X7.h +X>X X|.oX=XD.0 w y i j j A U b m S P n P l n U Y N U Y Y U U U U Y A U N N n n m l l l w 2 n *.=.L y +.OXj t ",
"K | d.B c.D.x.C v +X>X+X|.3X>Xm.0 r i j b b b Y m S Y U U U U U Y U U Y W _ Y Y W Y _ Y Y A U m n L m m n i 3 j *.=.P y I +.y t ",
"4.h.P.Z  X+X~./ v ,X9X=XU.,X9X|.7 y g b A A S Y m U W W U U ! U W Y U W _ _ ! ! _ Y A Y Y S Y U m m U m j j 3 j #.=.P 8 Q %.i p ",
"<.~.v.F .X3XoX^ N  X=X=XU.>X>X.X5 i j b D Y A k m Y W Y U ! U N ! Y U W _ _ ! Y _ _ _ Y U U ^ Y P m S Y S j 6 j H.J.E 8 [ #.j p ",
"K b.b.B g.h.e.j N .X>X|.z..X>Xm.1 t.y.y.y.n.m.n.v.U.U.b.v.U.P.v.v.y.| ! ! ! W Y _ ] _ Y _ _ _ U U U S Y U j w h $.L.T y Q +.h s ",
":.P.L.Z ~.oX~.k U oX2X+Xa. X>X~.: n.m.m.m.|.>X Xn.~. X.X+X9X9X+X3X7Xp.! W W Y Y _ | _ Y _ ! _ Y U U N U Y j 8 j H.}.[ 8 Q I.r s ",
";.u.p.V ~.+X~.s E 2X2X+X@.+X2X|.- v.n.n.m.]..X].l.U.|..X.X+X+XU.OXXX&.! ! W W U Y _ _ _ Y Y Y U L n L U U j 4 i | K.U w z.SX>Xs ",
"Z | | b r.b.v.j o.+X2XOX' XX2X{.1 t.t.y.y.a.v.z.z.v.L.v.v.{.L.z.L.a.+.' +.| | _ ' } @.u.} } $.$.} } #.} +.} U U u.p.} U a.XXv.C ",
"2.7.7.r.r.e.r.r.u.u.u.e.r.r.u.r.t.u.u.e.r.e.e.e.r.y.y.y.i.i.a.a.i.h.h.P.P.R.R.R.R.R.R.R.R.R././.R.XX/.<X<X<XXX/./.XX/.<X/.~.U.r."
};
