/* XPM */
static char *_08147cbbb92452a9bcea806f5d10213etZO0nDfXEXJFy8W[] = {
/* columns rows colors chars-per-pixel */
"64 64 254 2 ",
"   c #060604",
".  c #0B0503",
"X  c #0C0A05",
"o  c #150403",
"O  c #1B0303",
"+  c #140B05",
"@  c #1C0A04",
"#  c #190E0A",
"$  c #15110B",
"%  c #1C120C",
"&  c #1E0C10",
"*  c #1B1614",
"=  c #230503",
"-  c #290606",
";  c #240A05",
":  c #2C0B05",
">  c #250B0A",
",  c #2A0D0A",
"<  c #320D05",
"1  c #350F09",
"2  c #23130C",
"3  c #29150A",
"4  c #2C120C",
"5  c #33140C",
"6  c #38150B",
"7  c #2C1512",
"8  c #231A14",
"9  c #2C1A14",
"0  c #271918",
"q  c #341A14",
"w  c #361A16",
"e  c #3B1A14",
"r  c #2D2A19",
"t  c #37241A",
"y  c #212329",
"u  c #2C2E2C",
"i  c #382824",
"p  c #393735",
"a  c #4E160C",
"s  c #461B15",
"d  c #561B16",
"f  c #741E0C",
"g  c #661C11",
"h  c #49251A",
"j  c #552D14",
"k  c #58261B",
"l  c #652719",
"z  c #6B2A1D",
"x  c #762919",
"c  c #6E3011",
"v  c #701E2F",
"b  c #482B26",
"n  c #542B23",
"m  c #5A2926",
"M  c #5D2C24",
"N  c #4A3328",
"B  c #5A3328",
"V  c #522F34",
"C  c #483935",
"Z  c #583735",
"A  c #672A27",
"S  c #632C24",
"D  c #6C2C23",
"F  c #732D24",
"G  c #782D27",
"H  c #673426",
"J  c #63332A",
"K  c #6B342B",
"L  c #73342C",
"P  c #763829",
"I  c #682D32",
"U  c #693635",
"Y  c #783835",
"T  c #374927",
"R  c #6F451C",
"E  c #534A2E",
"W  c #594538",
"Q  c #67452B",
"!  c #6F532E",
"~  c #674637",
"^  c #774637",
"/  c #726C3B",
"(  c #313A46",
")  c #0F3A64",
"_  c #503948",
"`  c #743D44",
"'  c #354B4F",
"]  c #2D596D",
"[  c #4F4B4E",
"{  c #594847",
"}  c #595859",
"|  c #674947",
" . c #774B48",
".. c #675449",
"X. c #775847",
"o. c #694D54",
"O. c #685957",
"+. c #785A56",
"@. c #5E625F",
"#. c #79664C",
"$. c #6F6D58",
"%. c #7A6458",
"&. c #4E586B",
"*. c #575A64",
"=. c #6C5668",
"-. c #566B6C",
";. c #686665",
":. c #796965",
">. c #737170",
",. c #797A78",
"<. c #842A14",
"1. c #AB0A21",
"2. c #863729",
"3. c #91362C",
"4. c #843B36",
"5. c #AB372E",
"6. c #C91A2D",
"7. c #8F4E2F",
"8. c #874635",
"9. c #97463A",
"0. c #AC4A32",
"q. c #A64839",
"w. c #B85539",
"e. c #916535",
"r. c #AF7537",
"t. c #C95337",
"y. c #C87732",
"u. c #8F3047",
"i. c #B93A45",
"p. c #E1364F",
"a. c #974747",
"s. c #865647",
"d. c #91534D",
"f. c #865855",
"g. c #AB504C",
"h. c #876447",
"j. c #92714C",
"k. c #876658",
"l. c #966857",
"z. c #987659",
"x. c #A87749",
"c. c #AB6A52",
"v. c #A77858",
"b. c #855B6D",
"n. c #876966",
"m. c #897568",
"M. c #967767",
"N. c #8E7272",
"B. c #987974",
"V. c #A87967",
"C. c #B77568",
"Z. c #A77D76",
"A. c #CE504B",
"S. c #CC7154",
"D. c #CE7571",
"F. c #7B815F",
"G. c #6E866C",
"H. c #D09625",
"J. c #B08A52",
"K. c #888A66",
"L. c #9A896B",
"P. c #8B857A",
"I. c #9B8877",
"U. c #A78769",
"Y. c #B98B68",
"T. c #A39463",
"R. c #B99369",
"E. c #A68979",
"W. c #B28F74",
"Q. c #A99579",
"!. c #B89779",
"~. c #9AB26E",
"^. c #CA9455",
"/. c #DFA056",
"(. c #CA9471",
"). c #D4A96E",
"_. c #CAA479",
"`. c #D3A77B",
"'. c #EDB06F",
"]. c #29729D",
"[. c #4E738C",
"{. c #6D768D",
"}. c #627EBE",
"|. c #897586",
" X c #A178AB",
".X c #C17E87",
"XX c #15859D",
"oX c #299DB3",
"OX c #558A92",
"+X c #6E8D91",
"@X c #5494AF",
"#X c #6E95A9",
"$X c #54A8B8",
"%X c #6FA9B8",
"&X c #1DA6E1",
"*X c #53B0CC",
"=X c #75AFC6",
"-X c #12C3E0",
";X c #70DDE7",
":X c #898787",
">X c #998886",
",X c #94918D",
"<X c #899698",
"1X c #979599",
"2X c #A78985",
"3X c #B28C89",
"4X c #A89788",
"5X c #B69987",
"6X c #A89894",
"7X c #B49A95",
"8X c #B69896",
"9X c #BC9B95",
"0X c #B7A589",
"qX c #ABA792",
"wX c #B8A697",
"eX c #9093A4",
"rX c #A994A4",
"tX c #94AAAE",
"yX c #B4B0AE",
"uX c #C49486",
"iX c #C49D95",
"pX c #C79D99",
"aX c #C6A788",
"sX c #D4AC8F",
"dX c #D8B687",
"fX c #C8A599",
"gX c #C7B59B",
"hX c #E8AD87",
"jX c #C394A4",
"kX c #C8A6A5",
"lX c #C7B6A8",
"zX c #D5B5A6",
"xX c #C7BAB4",
"cX c #E3BAB3",
"vX c #BDC1BD",
"bX c #ECC893",
"nX c #DAC4A7",
"mX c #D0C5AF",
"MX c #CCC3B7",
"NX c #D9C8B9",
"BX c #E6C9AD",
"VX c #E3C7B6",
"CX c #97B6C6",
"ZX c #A7B6C5",
"AX c #CEBECA",
"SX c #B5CDCF",
"DX c #91DEE9",
"FX c #C7C6C7",
"GX c #D4C9C6",
"HX c #D9D4CA",
"JX c #D7D4D4",
"KX c #E3D8CA",
"LX c #E6DBD4",
"PX c #D2E1E1",
/* pixels */
"6X6X7X7X7X7X7X7X7X9X9XiXiXiXfXiXpXfXiXpXfXfXfXfXfXfXfXfXfX9X7X9X7X7X9X9X9X9X9X9X9X9X7X7X7X7X7X7X7X7X7X7X7X7X9XiXiXiXiX7X9X9X7X7X",
"k M J M S S S S S D D K F L L F P P 2.2.2.2.2.4.8.^ 4.L K J M J B M J U K L L P P 2.P L L L Y J B M S n M F G x <.2.2.x z z l l ",
"k M M k k k k M k M S S S S S D H H H H K P Y ^ Y P Y U J B B n J J J J B J K K K J B B B B n b n m n n M D F x F x z z l l k s ",
"x D S S S S S H H K K K K L K H K K P Y ^ 7.q.8.8.8.8.3.4.P H M L P P K K P P P L U U Y Y U J J J A A A A F F F z z z z z z k w ",
"x s o o o O O O O O O O O o o 5 P > - - ; > > > > > > > ; O o n n 2 @ @ ; ; @ O + # + % + o 4 Y & o o o . . . . .       0   5 s ",
"x s = - | , - - - > | Z b w 7 w Y : , , , 4 4 , > m w > O o o n b 2 ; # @ @ + + 8 r   .     # Y % 9 % % + X     r       ..  7 s ",
"x M xXc.z.h 8.X.v.Z sXaXsXsXsXs.K xXX.W h.P.,.X.H.C.x.b N a c n h 3 3 2 ; @ @ @ Q 4Xe....   # Y k ^.^.B R * I Z.} ' * W %.u h h ",
"F P xX%.`.!.x.bXhXNXNXC Q d.=.v.K KXK.4X).+XFXsXJ.v.j.M.0XH.7.m h 5 5 7 9 9 8 2 ! z.U.dX! # N 8.7./.x.Q y./ ` cX{ OXp R.I.u k h ",
"z P yX+.`.fXx.zX'.VXVXC Q d.N.v.H KXm.4X_.+XJXdXx.R.k.Q.nXH.W M P 0.0.0.0.0.9.9.R.j.:.`.^.C N 8.7./.j.H y./ s.cX{ OXp (.Q.u n h ",
"z H yXX._.aXr.uX'.VXVXC Q d.b.z.K KXm.5X0X<XPX).S.(.%.} hXH.X.M H ! e.e.e.j.j.Q.h.J.I.R.'.+.h 8.7./.^.R y./  .zX{ OX( R.Q.u n k ",
"l H qX%.!.5Xe.`.'.BXVXC Q s.b.M.H KX$.!.0X<XPX/.S.Y.:.>X/.e.h.M k K Y 4.8.9.9.g.p v.z.U.dXh.w ^ 8.^.S.H y./ ~ fX{ -.p !.I.y k k ",
"k k m.k.l.l.^ c.x.W.W.n B ^  .s.H 5XX.v.m.,.qXr.g.k.k.3Xr.Q l.M Y e.j.x.v.J.Y.Y.e.h.e.l.v.e.B Y P c.7.k 7.E B M.W [ C j.#.u k h ",
"d g l g d k k k k l l l z z S k l z D S H H K K K K K K K K K D k n M J M S S H H H K K J J B M m n b h h n h h n B n h h n h h ",
"l s = = = = = = = = = - > o . 4 M , - ; : : : : : > - = O o o k h @ # @ @ + @ o o * :.:.$.%.i Y 3 @ + @ @ + o + $ X         5 k ",
"l s < < < : : < 5 5 : 4 , O o 5 M e 4 7 w 7 7 4 4 > > = O o & J k t 3 3 3 % 2 @ + h ).).^.x.R 3...W i 9 2 # # % X u u u 0 $ 6 z ",
"x k < 6 6 < < 5 5 6 5 5 , O = 6 M b OXOX] ] p t 5 4 > > = 7 W S k x.x.J.J.J.x.N r W 0X5XE.M.^ 3.yXnXzX(.8.2 8 $ X ~ a.v v d e D ",
"x B.! N 5XN W N +.r.m.c Z s c k M Q.gXlX5X1X#Xo.| m...W.X.Y.k.M s.O.E.0XQ._.aX! ~.:.4X4XQ.m.^ 5.=X] W t.J.i N 9 t e.d.Z _ + e K ",
"x 2X).h.).OXP.0XGXy.qX^.K.7.L.l J 5XnXHXhXxXkX .k.6X0X0Xk.v.k.J U.R.(.bXbX'.BXK.~.0 aXaXW.v.H 0.=X-XNXt.J.).Q.e.M.K.S.3X=.H k P ",
"x 2X_.h.).@XP.4XwXy.qX^.K.e.L.l M 9XNXHXhXxXgX| f.6X0XaXk.Y.k.J U._._.bXbX'.BX/ K.E 0XnXnXdX^ 0.=X-XMXt.J.`.T.r.U.K.S.jX=.P b P ",
"x >XR.8.).OXP.4XwXy.tX^.K.7.L.g J 6XMXHXhXNXgX` f.6X0X0Xk.Y.k.J U.^.`.bXhX'.nXE W v.).).(.x.H 0.=X-XmXt.J.`.Q.J.U.K.S.jX_ Q h P ",
"x >XU.~ ).OXN.4XwXx.tX^.K.Q m.g J <XMXNXhXGXfX` k.qXqX0X%.v.k.J V.J.`.bX'.'.fXT ..sXsXsXsX(.8.0.*X-XxXt.J.`.L.J.M.K.(.kX=.H h 7.",
"x B.U.Q Y.[.:.I.4Xr.,XJ.$.H #.k J >XwXlX(.lX5X` +.2X4XQ.%.z.X.J z.h._.dX^.`.L.r N.yXyXwX7XM.e 9.#XoXlXw.J._.K.x.m.>._.yX*.j M 7.",
"x M w b s s s a a a a s s s e e M s s s e e e e s s e e w 7 # J B q q e w w 4 3 2 2 & # & # w 9.b 7 9 9 w q w 7 9 w t 9 0 % e 9.",
"x U ,.>.;.-.-.~ e d c.[ ~ H H h M e w w q 7 7 9 w e e s a s > K B 9 q e 8 2 % % % 8 8 8 8 8 w 9.T T T T E % $ X . X X . .   w 0.",
"z l.qXyXlXlXgXM.h e h +.{ b , e H e w w 7 7 9 7 ~ Z.0.5.5.5.k P J w e t 9 8 % 8 L.R.R.R.^.x.9 9.%X%X%X@X@Xp % * X.#.~ t 8 % s w.",
"z B.@XZXGXGXAX|.b 6 7 i 7 7 @ 5 H ..{ W N yXi b N.xXE.wX| +.4 Y  .|.o.| Z b ! 7.^.x.x.r.e.B t 9.i.A.A.A.i.a.% + j e.R c n 3 s w.",
"x 3X%.M.5X;.^.|.(.g.^ sX^ L.j.s H _.yXmXzXSX+XwXNXJX5XFX..M.c Y d.s.U V.B.Z.N i r aX#.#.X.y i 9...].[.HX..[ ' D Q k.~ ~ wXE l y.",
"x 3X+XM.lX#X'.2X(.g.d.sX~ 4Xx.a H ).+X0XnXSX{.9XVXJX5XFX..%.c 4.c.:.X.gX%X} | ;.p sXsXd.I.V i 9.m.].$XHX%.1XXXA.F.4Xd.!.lX@.P y.",
"z 3X+Xz.lX#X'.2X(.g.9.sX{ L.x.s L ).+X0XzXSXOX7XVXJX9XGXO.%.c 4.c.o.I.gX%X*.| ;.u aXgX .E.I i 9.m.].oXHX%.<XXXA.G.yXd.5XxX@.P w.",
"x 3XG.z.wX#X'.2XY.g.9.sXE I.j.a P ).+X!.gX[ +X7XQ.O.W ;.i i c 2.c.| wXgX%X} | @.u !.dXl.2XZ b 9.m.].*XHX:.<XXXA.G.rXd.5XMX} P w.",
"x W.G.k.gX#X'.Z.Y.g.9.aXW 0Xv.k P _.+X0XfX1XxX7XI.,...1X%.| j 4.C.| wXgX$X*.| ;.u Y.dX:.5XU { 9.m.].%XGXO.<XXXA.G.yXf.W.MX-.P w.",
"x l.%.X.Q.,.^.f.l.a.s.U.Z M.8.s P E.I.4XE.>X7XE.M.:...>X+.+.k P l.| m.I.+X} | @.u j.!.{ B.Z %.q.O.[.#XyX..,.].g.#.eXf.m.wX[ M q.",
"<.k 4 6 e w w e 6 6 6 5 < < , s G e e e e e e 6 e e h e 5 5 ; 2.P s e t w t w 9 9 0 9 0 8 * w g.N 9 9 w w 9 9 9 9 0 w 9 8 % k q.",
"<.s Y 4.4.Y Y s 5 < 5 : ; = ; 6 F 6 4 4 4 4 4 ; 4 5 7 ; = O O 2.Y h e h t w 9 8 9 0 0 * * $ w g.N 0 9 0 8 8 * * * * * $     h w.",
"<.U ..{ { { { C 6 < 5 , ; , = 6 F 5 w w w 4 4 , , = N N 6 @ O 9.Y n b b w 9 9 8 8 8 * * $ $ 9 g.b 0 0 8 * * * $ * i r r r X k w.",
"<.s.{ :.,.>.>.,.;.n d e b : H s F 3XI.I.,Xj.I...e ..1XyX^ ~ s 9.V.xXyX6X6X:XN.[ y ] @.[.} [ E g.:.v.z.z.X.Z i 2 y M.x.J.7.n P w.",
"<.C.5XE.tX@.~ ,.#Xa.Y &.:XE.e.z H VXNX5XyXe.KX,.,XyX*XGX#.E.j 2.7.dX#.N j.j.U.I.-.$XSX[.;.$.! 9.[ 3XD.E.U.3X2XH p [ Z 2X2Xd.x q.",
"x V.0X4XtX%XB.>.%XM.2.-.rXE.e.l K VXNX5XyXe.KXOX<XCX*XGX#.>Xj 2.^ dXP.V.sX^.z.!.,.oX$X[.;.F.! q.[ 7XD.gXU.2X4XH p :.>X2X5Xg.G w.",
"<.V.0X4XtX#X2X} @X,X3.} yXE.e.l K VXNX7XyXe.KXOX<XZX&XZX#.>Xj 2.8.dXm.V.fXJ.J._.>.XXOX[.} F.! q.[ 7XD.fXU.2X6XR C rX>X2X5Xc.x w.",
"f V.5X4XtX#X4X{ %X<Xg.} yX5Xe.c F VXNX6XvXe.HXOX<XZX&X}.#.>Xj 2.4.dXm.M.fXJ.J.!.,.XXXX].} F.R q.[ 7X(.gXU.>X4XQ C jX>X2X7Xg.x w.",
"f v.5X4XtX#X6XZ tXtX9.O.1X7Xh.l F cXGX4XFXe.HXOX,XSX&XCX#.>Xh 2.P _.>.M.7XJ.J.W.,.OXOX].U.T.E q.[ 2X.XkXI.2X,XH C  X>X2X5Xl.P w.",
"f s.f.+.>.:.f.U =.n.F ^  .f.P d F Z.B.f.N.P V.s.l.B.[.b.8.l.h 3.^ M.| | *.! X.+.} *.>.] h.#.h 9.o.:.f.n.%.+.n.b C b.N.N.M.f.z w.",
"g a < : < 5 6 5 5 < : : = = O 6 L , ; ; ; ; 5 4 , , , , = O o 2.J 2 3 2 2 2 9 8 * % * $ $ X 2 8.V i 0 w w 0 0 0 0 0 8 8 8 $ h w.",
"g k 5 7 t b C h 6 5 5 : ; = O s P 1.1.1.1.1.d ; = = V B b e @ G S 3 4 2 2 8 8 * % $ $ $ + X 2 a.V 0 0 0 8 * * * $ $ $ * X   h 0.",
"f H FXJXJXJXJX:.O.Z ~ B h 4 ; s z 6.6.1.6.6.G W 7 , 7XlX5Xk.5 x L 4 1 3 p p % p u 8 8 r # + 8 a.Z u ( ] ' b ;.* j 9 8 * $   k 0.",
"f s.wXE.6XN.| |.O.{ k.lXj.n.N c D nXJ.SXSX7XP.qX;.Z Y.zXyXP.c x l.tX .>.wXV.<X>X4X..N [ h h h g.W.n.yX1X:XC FX>XX._ 0 } :Xt l t.",
"f n.E.3XwXmX1X|.O.:XwXHXaX:.N l D nXr.SXDX6X,X~.[ 0 y.aXCX+Xc x f.DXp.>XkXM.#XwXMXM.wX( [.Y.z.q.V.%.xXgXMXtXGXP._.p 6Xm.FXW k w.",
"f n.E.5XqXHXCXeX,.,XyXNX!.;.N l F nXr.SXDX6X2X~.[ 0 y.aXCX+Xc x f.;Xp.>XfXN.#XMXlXL.wX' ].Y.v.g.V.+.xXgXMX#XJX:XdXC yXn.FXW k w.",
"f n.B.5X5XHXCX{.{ :XwXMX!.;.N l F nXr.SXDX6X4X~.} 0 y.dXCX+Xc x k.;Xp.2XiXN.{.MXlXI.wXr.].R.z.A.V.+.xXfXMX#XJX:XdXC yXn.FXW k w.",
"f |.B.3X5XHXCX&.C :XqXMX5X;.t j G nXr.FXDXyX4XqX*.0 J.`.CX,Xc G O.;Xp.6X9XN.[.mXgXE.wXH.].R.v.w.v.+.xXwXMX+XJXP.dXC yXn.FXW k w.",
"f |.I.fXwXJXtX{._ :X>XwX5X@.0 k 2.zXL.vXSXyXI.qX:Xo.W.lXCX,Xj x O.;Xp.6XuXN.&.0XwX>X0XH.[.Y.V.t.Z.{ yXwXxX{.JXP.`.p yX:.FXW M g.",
"f n.J U U ~ U U B U J U U B h d 3.s.~  . . .^  .^ Y  .s.+. .s x f.+Xu.| | _ _ { | Z | Q b Z ~ A. .V +.+.+.| n. .s.V %.{ >.N M g.",
"f ^ : < 1 < 5 < : < < < : = O e 9.s 4 , , 4 6 6 e 6 e 6 6 - O D S ; @ # % 8 0 0 8 % % X X X 4 A.b 0 0 * % $ X X X X X X X X h g.",
"f f.e B ~ ..e C ~ h < < = O o s 9.6 : , , 6 b 6 6 5 5 6 : O O F  .' [ p & @ % $ X   .       7 A._ r y ) ) ) X * X   X $ X X h g.",
"f V.6XO.N.%.b $.K.:X+.s 7 { d K 2.7XB.Z ..l.V.< : : 6 : O O o F n.<XqX6X1X*.* {.} &.[ C p + S w.uX>.-.+X-.-.( *.[ u } i X * J g.",
"x l.3X3X5XlXo.! / 1XuXl.h oXk.J 2.GXD.l.1XC.S.B.V.h.h.~ h e w F f.SXsXJXrXJ.:.wXtX*XM.%.&.Q P 0.C.{.3XD.-.kX$XOXM.C.k.M.%.i Z g.",
"f M.3XW.5XgXO.! / <X(.W.fXqXX.H G GXD.s.P.D.S.VXB.c.4.uXE.>.u D +.ZXsXLXrXJ.3XkX%XoXm.:.&.Z H 5.c.u 5XD.G.kX*XOXl.S.m.nXqX) Z g.",
"f k.3XW.3X0X| ! / 1XY.I.NX7X! j G GXD.^ $.D.S.LXM.c.u.zX2X>.0 D  .tXaXKX XJ.3XzXtXoX:.:.} i n 5.l.u 0XPX9XkX*X#Xl.S.B.nXwX) B g.",
"l k.3XZ.3X!.{ ! / <XY.%.VX2XX.h F MXD.^ $.D.S.LXZ.g.u.fX3X-.> l U eXaXNX XT.6XzXtXoX;.n.O.8 h 5.d.u 0X*XwXkX*X#Xh.S.>XnX0Xy I g.",
"g k.E.V.Z.U.Z Q ! N.c...sXm.%.k 2.xXD.Q h..XC.GXZ.g.u.W.n.&.7 S U <X0XnX XT.3XfXFX$X*.N.{ t h 5.l.u 5X$X4XjX*X+X~ c.1XzX!.r Z a.",
"a +.g f f g x f x x f f f f <.2.3.3.<.2.2.2.<.x G G 2.3.0.q.q.G Y K J m m M A U K U U U I m L Y Y U I L L L U U I G m I I L u.a.",
"d  .d g g g g l l l l k S D z F F z D D F G G A L I L L Y 4.Y L Y 2.G D L Y Y 4.9.s.Y Y U Y a.a.4.4.L U U Y 4.4.Y 4.4.Y 4.4.a.g.",
"s Z s a d d d M l l l d k D D D F F D F F G G S A m A m A D D D L G G G G 2.2.L Y K K I I U ` a.4.Y Y Y U U U I I I I I I Y u.Y ",
"pXiXiXpXiXiXfXfXfXfXfXfXfXpXpXfXfXiXiXiX9XiXiXiXiXiX9X9X7X9XiXpXfXiXiXiXiXpXfXfXiXiXiX9X9X9XfXkXkXkXzXkXpXkXpXpXpXiXiXiXpXpXpXpX"
};
