/* XPM */
static char *_507b8c40d0f4d2edfff9628d478678424X9kSBQVbMsFgIA[] = {
/* columns rows colors chars-per-pixel */
"64 64 244 2 ",
"   c #040C0E",
".  c #090E0F",
"X  c #0D100F",
"o  c #060D11",
"O  c #0A0E12",
"+  c #160F13",
"@  c #061113",
"#  c #0C1114",
"$  c #0C1519",
"%  c #0D171A",
"&  c #131315",
"*  c #1A1516",
"=  c #141917",
"-  c #1C1916",
";  c #13161A",
":  c #1A161A",
">  c #14191C",
",  c #1B1B1C",
"<  c #221816",
"1  c #231D1B",
"2  c #2B1D1B",
"3  c #371A19",
"4  c #1B211D",
"5  c #25211E",
"6  c #2B221D",
"7  c #33241D",
"8  c #38251E",
"9  c #3B2A1E",
"0  c #161D20",
"q  c #1C1D21",
"w  c #211E21",
"e  c #2A1F20",
"r  c #1D2324",
"t  c #242323",
"y  c #2B2423",
"u  c #242825",
"i  c #2C2924",
"p  c #2B2629",
"a  c #2C2A29",
"s  c #332622",
"d  c #362627",
"f  c #342A24",
"g  c #3B2C23",
"h  c #332B2B",
"j  c #3B2E2B",
"k  c #2B3129",
"l  c #35322C",
"z  c #3C3328",
"x  c #3C332C",
"c  c #3B2F32",
"v  c #3D3432",
"b  c #383935",
"n  c #461A1A",
"m  c #511E1A",
"M  c #44281E",
"N  c #502B1F",
"B  c #462923",
"V  c #422E24",
"C  c #4C2C22",
"Z  c #532E23",
"A  c #443225",
"S  c #4C3325",
"D  c #4C3B27",
"F  c #44342B",
"G  c #4B352A",
"H  c #443A2E",
"J  c #4C3A2C",
"K  c #5C3425",
"L  c #573728",
"P  c #533C2C",
"I  c #423633",
"U  c #453B34",
"Y  c #4B3C33",
"T  c #483D3B",
"R  c #523D32",
"E  c #5B3E34",
"W  c #6B362F",
"Q  c #633B2A",
"!  c #663928",
"~  c #663C32",
"^  c #52412D",
"/  c #5C422C",
"(  c #4C4135",
")  c #44423B",
"_  c #4B433B",
"`  c #544334",
"'  c #5B4433",
"]  c #5D4A36",
"[  c #54443A",
"{  c #57483B",
"}  c #5C4B3B",
"|  c #58523E",
" . c #66442C",
".. c #6C442C",
"X. c #75472D",
"o. c #7A532F",
"O. c #634533",
"+. c #674936",
"@. c #6B4B34",
"#. c #634D3B",
"$. c #744833",
"%. c #7B4C32",
"&. c #64513D",
"*. c #6E5438",
"=. c #6C543D",
"-. c #7C5235",
";. c #785438",
":. c #7C5A3D",
">. c #7E613E",
",. c #4B4642",
"<. c #544B45",
"1. c #5B4D41",
"2. c #4F554E",
"3. c #5B5347",
"4. c #635343",
"5. c #6A5443",
"6. c #6C5A44",
"7. c #655649",
"8. c #68574B",
"9. c #6C5B4B",
"0. c #735B44",
"q. c #775945",
"w. c #7C5D44",
"e. c #735C4A",
"r. c #7A6247",
"t. c #75624C",
"y. c #7C624B",
"u. c #6D6255",
"i. c #746353",
"p. c #7C6653",
"a. c #7D6953",
"s. c #796A5A",
"d. c #796F62",
"f. c #797C7D",
"g. c #814D32",
"h. c #8C5A32",
"j. c #845738",
"k. c #8D642E",
"l. c #88613D",
"z. c #96643D",
"x. c #AB743D",
"c. c #A9793C",
"v. c #874F47",
"b. c #855D44",
"n. c #846243",
"m. c #8B6646",
"M. c #83644B",
"N. c #846B4D",
"B. c #8C6B4C",
"V. c #966845",
"C. c #956B44",
"Z. c #9B6B44",
"A. c #936C4C",
"S. c #8D714C",
"D. c #99754B",
"F. c #846652",
"G. c #836B54",
"H. c #8C6C53",
"J. c #876D59",
"K. c #956C52",
"L. c #8D7354",
"P. c #877358",
"I. c #8C735A",
"U. c #937353",
"Y. c #997855",
"T. c #93745B",
"R. c #947B5C",
"E. c #9B7C5B",
"W. c #A1734B",
"Q. c #A57749",
"!. c #B0754B",
"~. c #A67D57",
"^. c #8A7764",
"/. c #947D66",
"(. c #9A7D63",
"). c #A37E65",
"_. c #C37E50",
"`. c #B38139",
"'. c #9D825A",
"]. c #A48354",
"[. c #AE8955",
"{. c #A5835C",
"}. c #AA845A",
"|. c #A48B5D",
" X c #AA8B5C",
".X c #B58957",
"XX c #8D806A",
"oX c #9C8362",
"OX c #94836C",
"+X c #9B836C",
"@X c #9D896B",
"#X c #9A8773",
"$X c #A38561",
"%X c #A58A64",
"&X c #A68868",
"*X c #AB8C6A",
"=X c #B48B64",
"-X c #AD9268",
";X c #B4936B",
":X c #B89568",
">X c #A78D75",
",X c #B18F70",
"<X c #A99479",
"1X c #B29472",
"2X c #B69A77",
"3X c #BB9C74",
"4X c #BBA27B",
"5X c #C58857",
"6X c #C39468",
"7X c #C39D73",
"8X c #C7A578",
"9X c #D0AE7C",
"0X c #7C7F82",
"qX c #7E8182",
"wX c #878684",
"eX c #978C86",
"rX c #9A9189",
"tX c #9E9793",
"yX c #A99A88",
"uX c #B69C81",
"iX c #A59A92",
"pX c #ADA089",
"aX c #B8A688",
"sX c #ACA395",
"dX c #B6A897",
"fX c #B9AEA2",
"gX c #C7AB83",
"hX c #C4AD8B",
"jX c #C9AC8C",
"kX c #CCB286",
"lX c #D3B68A",
"zX c #C9B696",
"xX c #CCBA9B",
"cX c #D2BB97",
"vX c #CABDA5",
"bX c #D1BFA2",
"nX c #DBC19C",
"mX c #D5C6A9",
"MX c #D1C8B1",
"NX c #D8CBB3",
"BX c #E1CEAF",
"VX c #DBD3C1",
"CX c #E5DCC9",
"ZX c #E6E1D0",
/* pixels */
"V g Y s ' y ` 1 # ; T & x S.*.;.:.l.:.;.;.j.j.].;XmXmXaXG.r.e.} } =.L.oX%X%X%X$XoX,X,X3X3X3X1X;XE.- & p d [ E.~.0.y.' G F  .+.J ",
"=.=.` g G f j * # & T ` ]. X~. X:X.X[.W.C.D.W.7X8XNXMXxXI.B.Y.E.$XG.R.cXkXgXkX7X7X9X9X8X8X6X:X=XY.- ; p d 1.).E.b.j.$.;.m.C.;.w.",
"4XgX*XL.Y.oXoX4.& ; T ] =X:X-X%X:X[..XQ.W..X]..X:XzXzX2Xa.a.t.t.&.i N.8X;X1X-X$XoX*X*X,XR.0.&.` f & ; p a [ H.L.w.O.G J P ' J s ",
"4XhXaX` :.E.hX<X& & _ F }.].Y.D.D.l.l.:.*.#.^ g 7 5.{.Y.+XhXNXcXa./ >.L.5 1.OXiX( oX}.;Xt.        o & p h Y 7 x s 4.T.I.0.T.(.[ ",
"6.R.'.I.L.&XaX<X; # ,.7  .;.7 1 * # o - L @.B.{.|.r.zX2X<XxXNXxX@XS.|.%X' /.BXBX9.2X2X<Xy.A A ` q.i * e c I , , 2.I.gXaXN.m.2X&X",
"7 $X;X3X1X>X} H ; # ,.2 C $.;         < ! g.8XlX-Xe.mXbXaXzXmXbXaX'.-X'.P P.lXcXi.%X2X1X0.X...U.K.7 & y h [ Y F ) H.lXzXe.A.&X&X",
"_ &XcX;X4XmXR.&X= # _ 2 n Q d 6 5 6 1 < ! %.gXnX:X4.NXmXaXaXvXmX1XY.|.|.L I.nXlX9.E.Y.&Xw. ...B.%Xj & h c 8.&X=.[ ] /.J.t > t 7.",
"u.U.gX;X4X*Xr.9.; # T 7 C ~ ' [ H.{.:.6 ! -.kXlX:X&.mXzX<XvXCXxX2XD. X|.L I.nXlX} A.q.~.w.1X3X*X~ 2 & h c 5..X].^ G [.D.1 > 0 1 ",
"u.N.;X{.;X~.r.F & O T 7 N ~ A * M.=X-.2 ! j.gXkX X4.nXkX*XvXCXmXhXD.|.|.A N.lX8X5.A.K.D.w.bXcXyXm < & h c 6..XQ./ C W.D.1 > 0 = ",
"3.o.j.X.j.z.G.a.# O ,.6 B ~ i , :.%X:.2 K h.8XkX:X] zXgX*XfXCXmXhXY. X|.F y.lX9X0.D.w.m.e.MXmXyXm < & h v 5.C.j.J 7 n.w., > , % ",
"z ;.;.@.l.Z.G.J.: o <.1 3 L g 9 #.g 6 * C %.4XkX3X` 2X8XI.sXCXmXaXD. X XA r.lX8Xy.K.b.m.O.U.Y.M.n * & j v T 6 f F & g h = > , & ",
"x B.=X{. X{.a.G., o <.6 3 Q g V P V 7 * C g.1XlXgX&.2XhXy.dXCXmXzX'. X-XJ r.kX7XI.:X~.C.' ..g.:.n + & h v T , , f # p j ; > , , ",
"f U.;X:XgXgXG.G.1 o <.2 3 Q V s A g g & M g.*XlXkX0.8XjXe.sXCXmXaX'.]. XG M.kX8XR.$X8X~.+...X.j.n * & s v T 8 s F & g U > : , # ",
"f L.;X3XlXhXG.H.1 o <.y 3 ~ 6 6 g 6 g * C g.=X8X9Xr.4XhXG.yXCXNXaXY.]. XJ w.lX8XoXw.7X:X0.! X...3 + & h v T V F T X G ` : > > % ",
"f R.*X3XlXhXp.H.- o ,.s M ~ 6 f V y 6 * K z.].kXlXa.2XjX^.yXCXNX<XY.].}.J w.kX:XoXy.7X7XN.! X...3 + & d I U < w i o y F , , > # ",
"f L.%X}.8XgX6.R., o ,.s M ~ 6 s g 1 , : K z.].kXlXy.aXxX>X<XZXmXaX'.].-XJ q.7X8X>XB.7X8XE.K K ..n * & h I U - d Y O y f , q q ; ",
"f ;.~.Y.D.~.6.H.: o ,.i 3 ~ s g V 1 1 & M g.~.:XlXG.vXVXzXaXZXvXaX'.].-X` q.8XlXuX(.8X8XU...%.n.3 + & h I U 7 L 5.& F #.5 , 0 # ",
"g *.w.C :.~.9.H., o T h 3 $.s g S 1 , & C h.&XkXcXR.xXNXxXaXZXmXhXR.D.|.' q.7XcXaX*X6X~.A.....:.3 + & h c v 1 V R X s R 1 > 0 @ ",
"j O.}.m.{.C.6.H.1 o b i 3 +.s g L , : & L l.%X:X8X(.hXNXvXpXZXmXaXoX].-X] q.hXmX<X$X;X}.M.-.h.n.3 + & d c j - 6 x o 2 G 1 , q # ",
"x ' =X}.Y.;X4.H.1 o v f M b.g @.@.z 5 & L z.*X;X3X&XaXmXzXpXCXmXaXL.].:X&.y.uXdXOXM.m.A.0.+.C.M.3 * & h j h * s U * i x 1 q w , ",
"x { N.w.M.oXY 0.: o v x V E g I F l v h F +.{ Y ` ` 4.9.{ _ u.8.{ J ` ` F x I x x l j j j h a f h h : p d i p h p s h p p p p p ",
", , , , , , , , ; o t p t , 1 , , 1 1 1 1 1 1 1 1 1 , w , , , : : : * : : : : : : : : : * : , ; : - : t h t : : * : * * ; ; & # ",
"& & & & & & & & & o t 1 & # # & & # # # # # & & # & * 7 g 9 V S S S V g V * . . o @ o   o       o # # t p p . 6 h t & o     y i ",
"  o     o o o o o o a l # # : 1 5 = @ = % @ > % = t : -.j.z.C.C.Z.C.z.l.-.#     > , : # o o     o O & t a h 6 M.m.M.q.} H p H F ",
"f : & # o       . o p v # % % = , > > r r > 4 = > : , j.l.C.Z.Z.Z.W.W.Z.:.@ o   1 I I l t ; o       # q p c V w.K.K.K.B.M.F Y G ",
"N.0.0.] F , O # O o t b % = = > > % > > > > > % # o 1 @.-.j.j.h.C.C.C.C.n.- #   - j.C.m.l.@.g &   o ; q t G g.g.g.%.;.b.b.i s U ",
"B.E.U.M.0.J - * * o t b % > > > % % > > > > > > % # u , : 1 L K A 6 i g z f h 7 6 `.c.`.c.k.L &     ; , t F B.b.j.-.X.! ! S : F ",
"Y.$XY.B.U.F.J - * o q l x ) b l u i u t r 4 0 > r , b 5 , 6 -.%./ 1 1 1 y i f g 6 k.k.c.c.h.S + o o ; > w U ~.;X3X;X).K.b.+.g , ",
"E.&XU.U.E.E.L.s - o , h Y.3XhX-XD..X5XD.D..X[.>.S.+., y 1 g z.z.;.1 1 1 1 e y h @   o ' L < X .   o & , r F g.X.X.j.b.A.Y.Y.R e ",
"$X%X%X-X%X$X$Xy.1 o > I S.1X4X2XQ.n.m.].].D.D.].m.D u.u.| ( ;.@.' T T x f f i l ( Y ( 0.K j 2 2 1 : # ; w U G.b.;.-.%.g.X.! 1 i ",
"#.i./.<X<XE.E.{.[ o : Y C.{.}.}.Q.C.Q..X.XB.Y.:XB.6 vXVXmXm..X5X5X5X6X1XE.,X~.5.a.bXxXhXK.e.g 7 1 & # : 0 ` ,X1X&XT.H.H.w.' & x ",
";.5 5 H F A J V 5 o : J ..O.o.o./ h.k.o.x.:X4X3XQ.6 aXMXbXK.6X_.5X!.!.K.=.$X=Xw.4.cXxX).v.[ 2 * & o # , q p 9.,XG.i.a.^.(.Y i Y ",
"#.` r.4.` ` g i > o > x l.S.L.B.m.n.*.D.~.{.&X1X{.#.u.d.G.M.m.!.!.C.W.w.=.*X.Xp.g &.[ f < & & * # # # : w h T.*XG.J.<XI.G.F.q.5.",
"` +.N.aX8X:X@.B.A O ; i i y 6 2 7 L Q -.n.g x U _ I * - N ..%.C.O.: , 1 t f g ` P Y l # y F f =.0.f # > , h +X(.e.I.dX+XuX(.F.5.",
"$X%XR.aX9X8XN.m.g @ = h a i f ` 9 C K !  .J R R &.' = , 3 K K W G r ; # @ o O 6 A 6.8.7.6.W.~.H.{.A # : > l J.+Xp.y.dX(.<X(.I.p.",
"-XkXR.4XkXkXG.n.g @ > p % 0 > 1 6 C Z Q L : 5 < , / * = M K K $.h Y x v 4.6.3.# 4 l 2.OXuXD.~.#.W.] X ; : U ^.hXF.e.aXI.+X+X/./.",
"4XkX1X} =.S.' D < o ; t % 0 4 g g Z ! Q K : s s 1 z > ; M ....%.g G g 6 N.3XOX@ , l ) (.1XZ.W.5.b.R o ; > v J.aXF.p.yX>XuX(.+X/.",
"t.6.N.' @.S.] G 1 o ; t % r t z f K ..X.Q & s s w f ; & 3 ..%.%.i 1 1 s L.gX@X# i H b :.C.l.A.P A.R @ ; > v G.uXr.J.#X^.dXT.(.>X",
"6.=.oX{ =.U.+.G 1 o # w # % = A f Z K Q Q > 6 g , f ; & 8 Q ~ %.D @.@.:.Y ` T = g | b n.A.j.C.] }.#.@ ; : U I.uXy.y.>X4./.J.(.>X",
"0.=.P.] ' N.#.G 1 o # w % > > g g C K K Q , t 9 > 5 ; & 7 Z ! X.L h.z.W.s F 6 @ u H b &X2XX.Z.Y ~.R O ; > ,.J.2Xw.H.>X` J.e.I.^.",
"=.^ =.} O.r.#.A 1 o # t % % ; 9 g M Z ! ..: 1 A : t # # 8 Z ! X.S %.j.Z.g z H @ = l ) *XuX%.W.A C.P O ; : ,.e.1Xy.F.+XY J.e.J.q.",
"=.` J ` ' w.&.V - o # t % # = 2 f M L K $.: , s , , # # g K Q $.9 g g G 1 g s o # u b '.>X-.~.O.l.F @ ; ; ,.1.,XL.F.<X5.5.{ J.F.",
"=.y.r.#.' U.=.V < o O r # # % - 6 M Z K ! , 5 g , t @ o 8 Q -...1 , 1 i 1 A x @ = l b R.>X$.W.;.C.g # ; ; ,.1.E.T.F.#XJ.J.#.J.J.",
"] U.e.&.' U.=.V < o o r # % # * 6 B L Q .., , 6 , , @ o 8 K $.%.2 1 1 6 , y y o = k b '.>X..Z.;.A.7 O ; > U 6.E.H.R.<XOXp.#.J.y.",
"} r.&.5.' U.6.g < o o , # % ; s Y M M Z $.5 6 F 1 t @ o 8 Z K %.6 , , y , g 5 o = u l Y.@X .Z.O.b.6 o ; ; y #.).w.T.yX^.6 U 9.E ",
"] a.L.^.P S.e.g 1 o @ , # % ; 7 A 8 M C X.1 0 6 : q # @ 3 C K ! 2 : 1 6 5 g x # & l ) <XyX..Z.0.E.g o ; ; v e./.F.J.#X/.x ` u.R ",
"4.y././.` H.r.g 1 o o , # % = , A G C L $.y 1 f 5 5 # # 3 C K ~ y , , e , y 5 o % a b yXsX .Z.G.<XY o # # T p.^.H.^.<Xp.5.e.^.e.",
"&.t.G.^.P N.r.g 1 o o , % % ; ; s V C L %.5 , 6 q 1 # # 3 Z ! X.7 , - 6 , y t @ % k b rXsX .C.i.aX<.o # # ,.u.^.^.OX^.^.5.` i.^.",
"&.OXOXXXD r.r.9 1 o o , = > , g ' M N Q -.6 s g x Y > # 8 K Q j.g , , y 5 f i ; , ) _ 9.s.F P H u.I o # # ) _ 8.4.u.v Y f h l v ",
"<.9.i.3.x ` [ l 5 o o , t a l F Y Y Y R ` I I h x H h i i f h h i w , q t t t p t t t p t t t q t t # # # q w q q q 0 , , > > : ",
"> , , , q , , , q # o ; > , , , , , , , , , : , , , , , : > > > ; ; ; ; ; ; ; ; ; & % & # # & ; & # o # # % # @ # # # o o & & # ",
"@ # # # O @ o o o o o ; - & # o o o # # @ @ @ @ @ @ @ o o # O # # # # # & & * : = r t 5 p x ,     o o # # & o o o o # - f x g I ",
"                  o o - A & # o o o     @ @ @ @ @ # # # O o % > , , i l x ( [ 1.4.4.6.e.6.m.l   #   o # # ; > > i H { #.q.e.F.F.",
"&     % # o         o >  .7 = # % ; > , , r r t t a h l t , G.N.e.#.5.5.&.6.5.e.6.5.5.} ] #.4._ i h o # # , _ =.=.q.n.M.G.H.H.T.",
"i   & f 6 < & @ o . o & ..P p y i h h l l l l x x H Y Y D +.r.L.w.Y { [ Y { { { 4.i.e.e.J.^.#X#Xs.h o o @ h M.b.B.B.N.T.T.H.e.} ",
", t 5 A g 6 * & & O o & S J F x j F F F G G L L  .O.@.q.G.#.Y h , f j [ 9.9.OX<X<X>X/./.^.^.OXi.} 1 & * * j H.I.T.L.0.#.( F f i ",
"G &.t.x g 5 * # # . o & 6 P F L S L / @.;.m.U.,XE.$X'.&X#Xx P.e.] r.^.aXsX^.+X<X>X#XOXOXd.v s.1.y 1 # 2 * 5 4.6.` Y F x g g g s ",
"/ U.L.} 5.Y y # # o o # * ' 5.0.B.'.E.%XE.N.R.P.( } } 4.4.f r.4.L ] OX>XyX#Xs.u.3.i f u ,.t = o o 1 o # # ; J ' F A j g s 1 1 & ",
"#.r.&.6 6 1 * # O o o & & 4.'.N.oXG.p.1.{ i F 6.[ { y.%X2X` S M M ] /.#Xd.<.u.F o @ x t x h t , o 5   @ # # @.-.g g y , # & @ o ",
"> 5 y i y e * & .     O p ^.<X<XaX#Xp.e.4.4.1 _ { { >XdXxX6.L A M J , , f G #.] O   a ; 8.9.9.l o 5 o # @ # 7 V t t t 0 # : , > ",
"& - s 6 ( 7 , # o o   # i OX1XaXaX^.#.] H i.i H a.x *XaXxX9.M V S O.R O.$.$.$.G u @ r ; r.I.oX1.Y 5 . # @ , 6.5.=.` } x y 1 s x ",
"* 1 7 H ` A s & & o   o t I.aX@XR.a.&.R a.a.5 , i.x (.uXaX&.L S 9 D s $.~ Y U ,.v # r & y.%X$X` P 1 o O o - e.O.:.' I.y.e.5.7 9.",
": - s 5 t t > # o     o : / / S 9 D a.1.J.i.u 5 i.x 0.<XzXs.L S A P , F _ 1.1.} Y = > * 6.N.y.J e.5 o o o & 0.&.q.' H.J.p.p.F [ ",
"wXf.wXwXeXwXwXf.f.f.f.f.wXyXyXeXwXiXdXdXMXfXwXwXfXrXfXVXCXfXyXrXeXiXtXdXsXwXeXdXiXqX0X0XeXeXrXrXdXwXf.f.f.f.iXrXrXrXdXdXsXfXiXwX"
};
