/* XPM */
static char *_61be0083dd2429ec0c4be90c21f3ef9SOLlntqq6Af7LhkC[] = {
/* columns rows colors chars-per-pixel */
"64 64 246 2 ",
"   c #040307",
".  c #03030B",
"X  c #09060C",
"o  c #06090D",
"O  c #0C0B0E",
"+  c #120D0D",
"@  c #1A0E0F",
"#  c #0E100F",
"$  c #13110F",
"%  c #1A130E",
"&  c #1A180F",
"*  c #040510",
"=  c #060911",
"-  c #0C0C12",
";  c #0B0B14",
":  c #120E12",
">  c #1F0F13",
",  c #0D1114",
"<  c #0C131A",
"1  c #0E181B",
"2  c #141313",
"3  c #1B1514",
"4  c #1A1615",
"5  c #1C1616",
"6  c #151916",
"7  c #1E1916",
"8  c #14151A",
"9  c #1A1618",
"0  c #151A1A",
"q  c #1C1B1A",
"w  c #23150E",
"e  c #2A170E",
"r  c #331A0E",
"t  c #221614",
"y  c #291613",
"u  c #221B15",
"i  c #2C1C14",
"p  c #211718",
"a  c #231C1A",
"s  c #2A1E1B",
"d  c #331C14",
"f  c #3A1E15",
"g  c #331D19",
"h  c #3D1F19",
"j  c #17201E",
"k  c #1D211D",
"l  c #252116",
"z  c #2B2215",
"x  c #24231C",
"c  c #2B231C",
"v  c #25281E",
"b  c #2B2A1E",
"n  c #342415",
"m  c #3B2416",
"M  c #3C2B16",
"N  c #32241C",
"B  c #3B241B",
"V  c #342A1C",
"C  c #3B2B1C",
"Z  c #34301F",
"A  c #3D321E",
"S  c #171D22",
"D  c #172425",
"F  c #1C2323",
"G  c #1F2D30",
"H  c #252522",
"J  c #2B2521",
"K  c #242A23",
"L  c #2C2B22",
"P  c #202628",
"I  c #242B2B",
"U  c #2A2E2D",
"Y  c #322421",
"T  c #332C23",
"R  c #372926",
"E  c #3B2C23",
"W  c #3D2E2A",
"Q  c #2D3224",
"!  c #2A352D",
"~  c #2D342C",
"^  c #343225",
"/  c #3B3324",
"(  c #3C3926",
")  c #353429",
"_  c #3B342A",
"`  c #353B2C",
"'  c #3C3A2B",
"]  c #292F30",
"[  c #243231",
"{  c #2C3433",
"}  c #2B3936",
"|  c #333632",
" . c #363C37",
".. c #3C3D33",
"X. c #43261B",
"o. c #462819",
"O. c #432B1C",
"+. c #4B2B1E",
"@. c #532E1D",
"#. c #43321D",
"$. c #4B341E",
"%. c #4B381D",
"&. c #53311D",
"*. c #402620",
"=. c #422E21",
"-. c #4B2D21",
";. c #552E23",
":. c #433423",
">. c #4C3423",
",. c #453A25",
"<. c #4C3B25",
"1. c #45352A",
"2. c #49372A",
"3. c #433C2C",
"4. c #4B3C2A",
"5. c #543323",
"6. c #5B3524",
"7. c #533B23",
"8. c #5A3A25",
"9. c #543629",
"0. c #533C2A",
"q. c #5C3E2B",
"w. c #453C33",
"e. c #573E30",
"r. c #633B26",
"t. c #633C2A",
"y. c #693F2D",
"u. c #3C4335",
"i. c #3D413B",
"p. c #45422D",
"a. c #49462B",
"s. c #4C432D",
"d. c #564427",
"f. c #54432D",
"g. c #5B442C",
"h. c #5D4A2E",
"j. c #454332",
"k. c #4A4432",
"l. c #4B4934",
"z. c #42473B",
"x. c #4C4D39",
"c. c #534533",
"v. c #594736",
"b. c #534B34",
"n. c #5C4B34",
"m. c #564D3A",
"M. c #4E533A",
"N. c #5A5236",
"B. c #555438",
"V. c #5D543B",
"C. c #65442E",
"Z. c #6C442D",
"A. c #664B2D",
"S. c #72432B",
"D. c #644633",
"F. c #684634",
"G. c #644D32",
"H. c #6C4B34",
"J. c #734633",
"K. c #734C33",
"L. c #7B4C35",
"P. c #794A39",
"I. c #645236",
"U. c #6A5334",
"Y. c #62553C",
"T. c #6C5339",
"R. c #665C3B",
"E. c #6D5B3D",
"W. c #775435",
"Q. c #745639",
"!. c #7C5339",
"~. c #745C3C",
"^. c #7B5C3C",
"/. c #6B633F",
"(. c #74623F",
"). c #7C623F",
"_. c #484A42",
"`. c #505143",
"'. c #585A47",
"]. c #54554B",
"[. c #5B5E51",
"{. c #675B42",
"}. c #745F41",
"|. c #795B45",
" X c #6C6445",
".X c #736342",
"XX c #7D6443",
"oX c #7D6945",
"OX c #78674A",
"+X c #6D6D5C",
"@X c #767968",
"#X c #874F33",
"$X c #83553C",
"%X c #885738",
"&X c #855A3D",
"*X c #83643E",
"=X c #92643F",
"-X c #A7613C",
";X c #885C42",
":X c #915E42",
">X c #836543",
",X c #8B6344",
"<X c #846A44",
"1X c #8A6B45",
"2X c #816748",
"3X c #8B6C4A",
"4X c #936344",
"5X c #976B48",
"6X c #946A4A",
"7X c #89754B",
"8X c #8B734D",
"9X c #93744C",
"0X c #9B764C",
"qX c #94794C",
"wX c #846F58",
"eX c #8B7452",
"rX c #927753",
"tX c #9B7750",
"yX c #947B53",
"uX c #9B7B53",
"iX c #A5724D",
"pX c #A37551",
"aX c #AD7B53",
"sX c #847E65",
"dX c #9B8358",
"fX c #A78656",
"gX c #A98355",
"hX c #A4855A",
"jX c #A5895C",
"kX c #AA915E",
"lX c #B3915D",
"zX c #90876F",
"xX c #A88C64",
"cX c #AB9268",
"vX c #B29665",
"bX c #B79767",
"nX c #AC9F74",
"mX c #BEAA78",
"MX c #C98E5B",
"NX c #C89463",
"BX c #D69C68",
"VX c #CFA975",
"CX c #E3AC75",
"ZX c #B6AB88",
"AX c #C4A980",
"SX c #E7BF89",
/* pixels */
"2 : 2 3 2 2 2 $ + + O + : 2 2 2 5 5 2 3 5 3 7 7 3 3 3 3 3 2 2 2 8 2 3 3 3 % % 3 2 2 2 2 3 7 q 7 7 u a a s s s c s a q q 3 3 2 2 ",
"3 5 7 5 3 3 2 2 2 2 2 2 2 3 2 2 : : - - O - : : 2 : : : : 2 2 2 : + : : - O O O : : 2 2 2 3 3 3 7 3 5 3 5 q q q 5 5 3 3 3 3 3 5 ",
": : : : : - - X X X X X - : 9 2 2 2 8 2 : : - - X - O : O : - : : : - - O + 2 : : O O O O 3 7 2 2 2 2 2 2 2 2 2 2 2 : 2 2 2 2 2 ",
". . . . . . X . . . . . .   H 3 . . . . . . . . . X X x 2 X . O ^ O . . X x 9 . . . . . . 2 9 H . . . . . X X . . . . . . . . . ",
". . . . . X = X . . . . . . X 3 9 . . . . . . . . J ) q ) a X E cXv . O ) l ^ q . . . . . 2 2 2 X X . . X X   . . . . . . . . . ",
".   . .   X = X .   . . . . X 3 9 2 q . .   : 7 . 3 L H ' T O k.<X2.+ L 3 2 J L X . . a O 9 s T.z 9.=.C >.3 X . - X X O .   . . ",
"a ) x 9 a X X . 9 q : 2 l + J l q 9 9 . . O OXeXL j.L q .XxXOXL h.XX3 L q . . O . . . 2 2 X 3 ^.O.J.t.-.K.B |.<.~.>X:.f.c.E b L ",
"k `.` Q x X X X k./.V.R..X XN.b.' 2 X . . 3 oX<X' 3.3.2 E.3Xn.v T k.9 a q . . . . . . X c.v.,.uX$.!.Z.$.&Xo.gXH.XXhX7.2X9Xg.a. X",
"q x.l.^ K o   X s. XR.OX/.a.b.p.^ v X . . . c / T s.3.b ^ s./ 6 - k J c X : a - . . 2 H m.T.,.,X$.!.H.5.$XB 9XA.^.tXd.^.3X<.3.'.",
"k j.p.b K O . . L p.' ' L H k k v 2 O X . . L ' ' p.p.) V.rX8Xc X v L O X f.<X/ X . q q 4.E.=.>X&.!.Z.-.!.n Q.>.U.>X7.G.^.0.T j.",
"6 M.B.Q v X . - l c l a a z a c c 7 O . . . 6 q q q b c {.kXfX^._ ^ 2 - O G.W.c.3 . q q v.XX+.1X&.J.C.g q.y 9.n g.1X7.g.1Xh.T ) ",
"0 '.B.Q k X   O / >.0.d.7.G.<.C c u $ . . X . . X . 3 v ^ oX<XXXJ O X X 9 u c.V : X x 9 k.oX#.3X$.C.6.d q.i D.O.g.3X7.0.).g._ x.",
"0 x.u.Q k . . X N E #.#.C C i u u % : . . . X . . X J ) 3.+ u n.  9 2 . - 2 X x o X q K 3.Y./ H.B B f u -.i ,X8.<.W.:.3.2Xd.^ '.",
"6 u.^ v 0 O 3 + z u t % 7 3 % $ $ @ 2 . . X . . . - v J L - X X T ' j.q q 9 . = 9 v ^ J 3.n.#.tX7.J.C.o.^.m 0X8.0.1X:.A G.#.L x.",
"0 u.' Q 0 O .XyX<X3XjXvXcXcXhX8X).h./ O . X . . . . 2 q x O X x ' l k q k q 2 k ) p.^ ^ ' s.C 2X>.W.g.B W.n ,X7.g.9X>./ T./ c l.",
"6 ` ) k 6 . I.lXtX).qXfX1X0XlXqX^.E.c - . .   X . . X ' ) x O = O H H 0 9 k 2 0 H L Q ` ( 3.C XX#.q.>.B K.n >X7.>.<X#.z f.V l p.",
"6 ` ` K , X ,.G.<.A g.g.7.g.U.0.>.:.l O . . X o * X H : _ 9   . O k 6 O 0 9 0 9 6 x v 2 l ^ z XX#.D.5.B W.i ^.>.#.Q.C l n.l q ^ ",
", ` ` K - . u i t u n C M V M z t i i 3 O O + O O : : X O = . X 2 9 7 l A #.C V l 2 u l 3 2 a Q.>.H.6.C K.d H.+.C T.N u 4.l q ' ",
"< K Q k = . + B 9.Z.$X&X6X&X6X;X;X,XpX4X,X;X4X:X!.5.X.3 .   2 ^ p.l.b.b.b.N.p.3.3.p.p./ T v 7 ~.$.A.>.B H.i D.>.n XXV 7 ( a 9 j.",
", K k 6 - . O t f -.6.@.@.@.r.6.8.t.y.Z.y.Z.L.#XJ.;.X.> * . 2 L ' ) ( p.3.) ^ ^ ^ ' _ _ ^ H 2 >.C 5.o.B C.e q.o.i g.l 2 b q 6 ` ",
"- k F 6 = . . + 3 i d d g g d g y d B f X.B X.+.X.h g @ . o c T / A A A Z b l c E :.( b b l 9 u u q.>.i >.w 9.V 3 i 3 2 6 2 , F ",
"X , < , X . . O g B B B B B B i t N C O.=.B -.9.>.E g 2 . . l V a.<./ V ^ x x l / A Z l x q 6 + O i N @ w @ y 3 + + - X - X o - ",
"q q 9 9 3 2 2 2 5 5 u u u p u 5 5 a s s N c c c s a p 3 2 2 7 7 u 7 3 3 3 3 7 u u a a z c c J s s c c c J J N N c c c c c J J s ",
"s s s a a a a z s s s a a p 5 3 2 2 2 : : : 2 2 3 3 2 $ $ $ + 2 2 2 2 2 3 3 3 3 p u u a a a a a a a u u u u u u p u a a s c c c ",
"s s s a s s s s a a a u q a u 3 3 2 2 2 2 2 2 L c 5 z p 2 2 $ 2 2 2 2 2 3 3 3 3 3 5 3 5 q a a a q a a a q a a a u a q a z a s s ",
". X . . . + m.7 X . . H . X 8 . . . .   . . L T ' J ^ - . - X : X . . . . . . . . . . . . . . . . . . . . . . . L - c oXY.2 =   ",
". X . . . ) 7XOX- , 3 V.2 O - . . . .   . X l J T x 2 =   {.rXI.J X X X . . X . . X . X . . . . . . . . X . ) j.O + a.I.E.' =   ",
". . . = . O 3.k.E OXq ' 1.= O X . . .     . X O 2 K ) _ J }.xXh.v.T.:.1.T i _ x 3 U  .} [ S 2 + O X X . X . X a _ ) v a 2 2 . . ",
", . . w.'.) ) s.v.}.Y.l $ X . 2 q a q $ a L L x O k T mXeX(.hXh.T.9X<.:.4.c b.1.7 I } i.I q z T N 3 - . * . . 3 p.( T ) 6 F F 6 ",
"0 . X 3.{.c Q q w.I.T ) q X O ) V.p.b.N..Xb.q L L l ^ xXE.R.qXf.G.9X>.E 4.s f.:.7 F [  .D q i E N 3 = . X O - 2 x b l.l.8 { U F ",
"0 . . O ^ a L p.j.3 _ x . . L l.N.N.b.N.{.' X H 9 2 x b./ c.8X<.n.*X=.E 2.a 4.f.a S } ..D 8 a N s 9 2 ) v L L v J $ l.b = U ~ F ",
"0 . . O _ ^ L a._ v ^ L . . k ^ ) l.j.^ ' 2   2 2 2 9 {.c.v.dX<.h.*X:.:.g.a 4.g.v 0 [ z.I 8 c 1.V 5 2 b / T L f.,.T T 2 o U | q ",
"6 8 9 x T ^ 9 3 9 2 q q X 2 a u v x x q x 2 2 x L O u kXoXf.xXh.g.rXC / g.a :.4.a q } ..K , a E V L 2 ) a.w./ 9XXXE.c.T q | ..I ",
"8 2 2 N 3.v 7 2 2 = = X . 5 i E C :.:.:.=.O.V c c X 2 rX~.b.cXG.g.1XC N 2.q 4.:.2 0 } u.F , 6 T :.b o . ' 2 c.).Q.E.:._ 6 I | 0 ",
"2 2 J _ / c x 3 : - o . . 2 t =.=.:.:.=.E C E z u . 2 yXR.f.jXn.g.<XC l / q E T 2 8 } | D < 3 N Y a X X u 7 4.I.~.n./ c - P { S ",
"- $ c :.,.c 3 O : O 2 a c N E 2.<.4./ :.1./ E N z 2 + <XG.4.vXI.<.^.N u T 5 T a : < [ { D ; , u a 2 = 2 8XrXkXdXvXqXyX,.2 D F < ",
"= 2 c :.<.z 2 - 2 X ^ .XdXdXyXdXjXvXrXcXyXhX7X.XV.c O }.c.:.dXg.#.G.c 3 z 2 l q - ; G [ D ; 2 a a 2 X X d..X<XI.E.s.G.^ - S D < ",
". - l V :.T 2 X - X l V 4.A :.<.<.d.:.<.<.d.G.4.C q X E.4.3.9Xd.:.C.z 3 a 2 2 9 - = D [ D = - q 9 - q / 4.f.G.f.:.T f.4.T q D < ",
". X 2 2 q 9 2 - - u E ,.G.~.^.1X9X).uXfX>XhXhX~.<.2 O n.<.:.8Xf.#.D.V 3 u 2 O 2 = = S F 1 = - 2 2 X 4.1X<X<X>X3X4./ ^.>XXX: 1 ; ",
"X X a a u 2 - - X 3 i i V C 7.U.U.%.g.A.$.0.0.C c + + :.:.N s.:.V :.i 7 a 2 - 2 O X 8 < ; X X O - X 3 n C C C n u 7 N C c - - ; ",
"T E _ _ E E E T R E E T E E E E E Y Y N N c z s s s c Y N N N Y N T E W E W W W W W _ _ ) _ _ _ W W E T Y c s a u 7 a s Y Y Y R ",
"5 3 2 3 q a a a a a a a a a a 7 3 5 5 p p 5 5 2 3 3 3 3 3 3 2 2 3 5 p a a a a a c N c a a a a 7 3 3 2 2 2 2 2 2 2 2 2 3 3 3 3 2 ",
"X . . x 3 X X q 3.a X . . . . .   . . . . . . X O = X . . . . . . = O X . X L X a ' T + 2 . . . . X X . . . . . ) X       * X X ",
": - X ) b l . 9 _ L . ; 2 X . . . . . . . . . O L , . . . . .   . X ..T x $ B.X a zXZX+XJ . . . . . * . . . .   u ' . . . . X X ",
"R.3.c V.u , . J T 9 X ^ V.' 9 . . . . . . . . X 9 2 . . . . X x q ) l ^ ) l k.2 v ZXmX7Xl X . . . . ; * . . . . 9 3.  . = ' j.Z ",
"_ v.rXAXcXD.7 Y.' 2 X _ _ 7 O . . . . . . . . = ) ^ 2 . . . 2 j.2 ^ ) b b 9 L q ^ zXnXsX: ` X * *   = 2 7 q : L z wX. . . 2 3.p.",
"c.eXCXNXMXBXOXb._ 9 l ' ' O . = .   . i i 3 a g s ^ 2 . . . 9 ) x ` 2 ) ' j.( - 9 ^ ( 9 X - H X . * 2 x.b.j.$ ^ p.E   * . . 2 3.",
"w.hXBX#X%XBXcX2 3 L b L L 2 E m.3 9 . F.W.o.C.L.y a 3 . . . . X ) ' x a 2 ( v . * K q a L - v - - 2 _ c c L q T 3.q . . X .   _ ",
"2 bXCX-XaXSXdX2 ' ' 9 q ) ^ {.E.c L . T.6X+.K.:Xy E . . . . . . ; O 2 X O ' q X . O 2 H 9 - q = k k.L X x V.c 2 3 . . X X . . = ",
"X 1.bXNXNXdXc 9 3.L 3..X3.q _ _ O ' x H.pX5.!.&Xy 2 X . . . . . . - 9.F.t.H.D.D.D.g.e.>.=.N c u : J L 2 L p.b - X . .   . . . o ",
"V._ a T v.m.n.b.a k V.(.c . X . . q a H.9X+.!.&Xe i t > X . . . . O X.r.r.t.S.S.S.S.Z.K.J.6.o.8.3 9 v a L ,.b.L . * . . . . . X ",
"p.oX3.9 T V.p.^ 2 0 v 2 . . L q . J j.q.;X+.J.L.e gXiX6.@ - X X - B 5.Z.K.Z.C.y.y.t.6.r.6.m s X.u T N 3 - q +     X 7 a 2 . . o ",
"9 n.k.x T 3._ R.Y.c 9 . . X ^ ' 2 . H >.H.X.$X&Xd 6X6X>.p E B : : X.C.,X6X4XpXpX0X6X6X:X=XD.i g.i 7 4.7 7 + 1..Xf._ c V 9 6 3 2 ",
"8 ( ( ( V..X( 9 b q 2   . 2 ) 2 T 5 9 V 0.B Z.Z.y 0.D.B t =.E : : t i B B O.$.+.+.O.+.+.o.N % C p u 4.z Q.V a.VXqX,.c T 2 3 T E ",
"2 q x b T _ V q H 2 - = . . H q v _ l q.4X;.6.Z.d pXaX8.t =.B % 9 u l v & z V C C V z 7 + 9 3 @ X 7 ,.z XX:.s.xXU.:.c N 2 q ^ / ",
"2 2 v L x x L ^ x 6 O O o - x # H x 7 C.#X+.L.$Xf xXaX6.t E Y + - 7 T _ _ ,.,.p.,.( / ) T V x 2 . 5 C z >X<.f.bX7X<.c N 2 7 / E ",
"2 q 2 9 x ^ T L 6 ~ ~ ~ K Q ` ~ K , X D.4X+.Z.L.r T.^.>.t E Y :   q j.j.k.b.m.b.k.3.p.j.p.p.' H X 9 C i Q.:.c.VX8X,.v c 2 2 N T ",
"2 q 2 q 2 ) 2 . U ~ ~ u.u.u.z.z.` 0 X D.iX+.t.C.e ,X6X5.2 N N + . 8 x v v b x v v L x v v v x q - 2 N i Q.,.4.hXA.A l c 2 9 T N ",
"2 - X 2 2 X . X F 0 0 k j F K K F , = D.iXX.H.$Xe iXiX5.2 N Y + . v ^ ` ' ' ..' ' j.3.' ' ) ^ ) v $ v 7 n.V p.vXI.V z l 2 2 Y N ",
"2 ; - 8 |  .U _._.i...].`.`._.z..., X 9.L.f C.$Xe $X#X+.: s c - * 8 x H H v v x v l l x v x l q 6 - 3 2 <.V ,.bXE.N l l 6 2 c z ",
"2 ; ; 8 ].@X_.zX].+X[.@X+X[.].].].0 . >.t.d -.r.w P.L.X.: a s = . 2 ) ' ' k.3.3.3.p.3.3.3.3.3.j.' L v 9 / z A vX<Xc q u , , l c ",
"- * = , P { F } I | ] | ! ] P I U 8   *.6.d 9.P.e y.y.d + 7 p = X - l l v v l x x c l c x v b b x q q 2 b u T dX}.z l l - - q a ",
"= . q V #.:.:.V C #.V <.%.#.#.C V N . t O.y -.J.w 5.;.t X : : X C A d.d.#.#.#.#.%.#.#.O.#.M #.#.C z V + 3 2 u Y.3.9 0 7 - = 2 2 ",
"X . % n #.%.o.#.#.#.C d.d.A.%.%.%.V . : + O 3 d + g X.3 X O X . u z %.%.n n M M M M M M M z z M z w z O X X $ b l - - , o X O X "
};
