/* XPM */
static char *ca2a559af7ef4762e7298aaf107bb3e2Phzd6kDWfaB7BTuC[] = {
/* columns rows colors chars-per-pixel */
"64 64 254 2 ",
"   c #100F0C",
".  c #1A1513",
"X  c #1A1917",
"o  c #1C1A14",
"O  c #22190E",
"+  c #221C15",
"@  c #241D1B",
"#  c #2A1D18",
"$  c #1E221B",
"%  c #24221C",
"&  c #2B241B",
"*  c #2B2818",
"=  c #34281D",
"-  c #251E22",
";  c #1D242A",
":  c #242424",
">  c #2A2522",
",  c #2D2B24",
"<  c #262B29",
"1  c #2C2C2B",
"2  c #342624",
"3  c #332C24",
"4  c #3B2C23",
"5  c #332D2B",
"6  c #3B2D2B",
"7  c #2E3024",
"8  c #2D312B",
"9  c #363426",
"0  c #3B3225",
"q  c #34322B",
"w  c #3B332B",
"e  c #3C3A2D",
"r  c #2A2C31",
"t  c #332F31",
"y  c #2D3332",
"u  c #343533",
"i  c #3B3533",
"p  c #353934",
"a  c #3C3B33",
"s  c #38393A",
"d  c #452E1E",
"f  c #422E24",
"g  c #433225",
"h  c #4B3525",
"j  c #4A3826",
"k  c #42352B",
"l  c #433A2D",
"z  c #4B3B2C",
"x  c #55372A",
"c  c #543C2C",
"v  c #433B33",
"b  c #473936",
"n  c #4B3D33",
"m  c #433D3B",
"M  c #533D32",
"N  c #5B3C32",
"B  c #523E39",
"V  c #643E2F",
"C  c #3C412B",
"Z  c #3E423A",
"A  c #53422E",
"S  c #5B422C",
"D  c #444234",
"F  c #4C4731",
"G  c #4C4234",
"H  c #44433C",
"J  c #4C443B",
"K  c #4B493B",
"L  c #544334",
"P  c #5C4433",
"I  c #504837",
"U  c #5C4934",
"Y  c #53453B",
"T  c #5B463B",
"R  c #544B3C",
"E  c #5B4B3B",
"W  c #55533D",
"Q  c #5C513C",
"!  c #63432D",
"~  c #634433",
"^  c #644B34",
"/  c #684837",
"(  c #624C3B",
")  c #6B4C3A",
"_  c #784B36",
"`  c #744D3B",
"'  c #64523D",
"]  c #6B5639",
"[  c #6B533C",
"{  c #73533D",
"}  c #78583C",
"|  c #3C3E40",
" . c #453E42",
".. c #3C4644",
"X. c #484744",
"o. c #4D4B43",
"O. c #554643",
"+. c #554C43",
"@. c #5B4C42",
"#. c #4F5646",
"$. c #5C5244",
"%. c #54534A",
"&. c #5B544A",
"*. c #585848",
"=. c #585954",
"-. c #624D42",
";. c #6D4E41",
":. c #784D41",
">. c #645343",
",. c #6C5544",
"<. c #655944",
"1. c #6D5A44",
"2. c #65554A",
"3. c #6A554A",
"4. c #645B4C",
"5. c #6C5B4B",
"6. c #735443",
"7. c #7B5543",
"8. c #735B43",
"9. c #7B5C44",
"0. c #72564B",
"q. c #735D4B",
"w. c #7B5D4A",
"e. c #645D52",
"r. c #6A5B53",
"t. c #735C53",
"y. c #5B6859",
"u. c #64644D",
"i. c #6C624D",
"p. c #7C6245",
"a. c #74634C",
"s. c #78674A",
"d. c #7C644B",
"f. c #6C6353",
"g. c #696758",
"h. c #736453",
"j. c #7B6453",
"k. c #7C6B54",
"l. c #766758",
"z. c #746B5C",
"x. c #7C6C5B",
"c. c #6E735E",
"v. c #7C7155",
"b. c #7E735B",
"n. c #5E6D61",
"m. c #776B62",
"M. c #687466",
"N. c #7D7463",
"B. c #72756D",
"V. c #7A7769",
"C. c #834B36",
"Z. c #87563B",
"A. c #81613D",
"S. c #835C44",
"D. c #885B46",
"F. c #945C49",
"G. c #876445",
"H. c #83644B",
"J. c #8C644B",
"K. c #856A4C",
"L. c #8C6C4B",
"P. c #95684A",
"I. c #8B714D",
"U. c #96744D",
"Y. c #856554",
"T. c #836B54",
"R. c #8B6C53",
"E. c #836D5B",
"W. c #8C6D5A",
"Q. c #936D54",
"!. c #956C58",
"~. c #847154",
"^. c #8C7254",
"/. c #84745D",
"(. c #8C745B",
"). c #8D7A5C",
"_. c #947454",
"`. c #987656",
"'. c #9B7A55",
"]. c #93745B",
"[. c #947B5B",
"{. c #9B7B5C",
"}. c #A66B55",
"|. c #A67858",
" X c #A37C5C",
".X c #836E62",
"XX c #837462",
"oX c #887667",
"OX c #857B64",
"+X c #8D7B64",
"@X c #847B6C",
"#X c #8E7B6F",
"$X c #8C7C6C",
"%X c #937C63",
"&X c #957967",
"*X c #9B7E63",
"=X c #A57D67",
"-X c #7C8476",
";X c #8D805F",
":X c #9C8158",
">X c #9C825C",
",X c #A3835C",
"<X c #A8825A",
"1X c #8B8469",
"2X c #8D826C",
"3X c #948264",
"4X c #9D8364",
"5X c #94836C",
"6X c #9C846B",
"7X c #958A6B",
"8X c #9D8A6C",
"9X c #8C8372",
"0X c #8A8777",
"qX c #938774",
"wX c #9C8572",
"eX c #9B8B73",
"rX c #938C7B",
"tX c #9C8B7A",
"yX c #9B927C",
"uX c #A38463",
"iX c #AA8365",
"pX c #A48964",
"aX c #AA8A64",
"sX c #A3856B",
"dX c #A38A6B",
"fX c #AB8B6B",
"gX c #B4886A",
"hX c #AB936B",
"jX c #B4946C",
"kX c #A38B72",
"lX c #A78976",
"zX c #AA8D72",
"xX c #B78B74",
"cX c #AC9374",
"vX c #A4937C",
"bX c #A99979",
"nX c #B39878",
"mX c #AFA67D",
"MX c #B9A47B",
"NX c #948C83",
"BX c #9C9485",
"VX c #A79884",
"CX c #B49B82",
"ZX c #A69B91",
"AX c #ACA387",
"SX c #B7A686",
"DX c #BBAA8A",
"FX c #BAAB92",
"GX c #BDB495",
"HX c #BDAAA1",
"JX c #C2AB88",
"KX c #C6B190",
"LX c #C5B497",
"PX c #C0B4AC",
/* pixels */
"q p p q u u u a a s s s s u s p p s u 1 r a j.I a u y 1 r y y 1 < 1 q 1 1 t 5 1 8 < u | %.o.o.%.r r < < r 1 5 v m t y 5 1 r r 8 ",
"4 Y g.l g k # L E n G G l n Y w w u q v X e 5Xa.z.J l z e 4 4 n I G n J G L Y $.K +.V.e.rX0XrX9Xw 5 3 3 2 k f.XX>.k n l +.e.=.&.",
"0.cX3X^.4X8Xk.d.p.).%Xd.' R.&X-.>.@.>.k.V.I %Xd.k.E.6X6X2X8.7.[.DX/.oXvX6X6X&XqX9XeXE.2.NXrXyXqX2.l.>.n 4 5.bX%X~ c 0.P qXZXqXx.",
"w.hXJXuXaXaX4X_.A.'.fXR.8.Q.sXq.,.,.Y.^.vX' zXH.kX].*X8XeX9.S._.DX+X%XkXuXuX%XkXOXeXh.t.NXrXqXOX<.l.@.L f ,.JXzXS h 7.( BXBXtXT.",
"7.jXMXaXjXpX>XQ.A.<XfX{.} P.iX) ( [ K.jXbX' sXd.6XcX4X4X6X7.D.[.KX*XkXCXuXaXuXKX5XeX5.e.rX0X9X9X5.l.T L k [ SX6XP h 7.P $XBXVXY.",
"} jXMX<X,X'.`.Q.Z.'.fXL._ P.<X` ~ ~ G.jXbXU [.8.4XuX'.{.sX7.S._.DX[.sXzX_.uX`.DX3X6Xx.4.0XqX2XrX3.q.T z 4 [ nX5XA h ` c $XVXwXj.",
"{ fXnX>X'.'.`.Q.S.R.*XK.` L. X) ' T j.dXeXE %X9.[.^.(.(.&X) } K.CX/.$XkX].4X[.VX$X$X@X*.0XrX9X9X>.3.M h 0 ) 5X.XL h ;.z l.tX#Xq.",
"h N v 0 0 w w w w e e e k G oX5.J n n A e q n = 4 0 q D @.L G v J J J I G K m D e w q < 8 q 7 w , , > 4 < 5 a i < 5 6 , 5 5 q , ",
"7.!.r.4 3 3 0 G w 7 w z N z 5X~././.(.H.h.J Y # & % % f.VXVX$Xm m X.+.&.R +.w $.$.$.R = = Y 4.= 0 4 & -.v k k i q v k 1 i 1 q , ",
"Z.F.].H.R.R.J.*X&X;.!.fX}.!.*XI.pXfXjX X&XM 6.W.j.a H eXnXmXb.w v O.f.h.5.2.T q.a.s.1.x w.nX(.^.6X*X[ d.d.%X~.5.>.*Xd.Y ,.L 5.x.",
"Z.}.zXH.E.R.S.!.lX6.J.iX}. XnX].K.R.{._.E.>.d.S.d.K D AXSXMXbXJ D $.@X2XXX5.-.5.a.w.,.P G.MXcX,XaXuX4XG.J.fXuXa.w.iX_.' 7.,.d.*X",
"_ P.dX} R.L.S.].lX{ fXfX}.U.fX].1.q.R.p.h.4.<.7.J.t.&.SXFXDXAX+.BXXX5XeX6XT.U 5.q.q.>.c J.MXjXaXjXuX{.G.P.aX,X~.7.<XL.U 7.q.*XCX",
"_ F.6XS.H.G.G.Q.=X{ =XuXP.Q.{.K.(.R.{.`./.2.R / S.W.6 I k.s.a.e.PX5.5X5X3Xd.U 5.8.6.' c G.MXjX,X<X'.'.G.G.<X,XK.} <XP.S ` ( {.nX",
"` D.6X7.9.d.9.R.].` _.*XD.H.sXR.*X[.uX>X%X3.Y h 7.W.>.9XAXbXbXqX0X0 yXAXbX~.U >.,.3.-.c 9.SXcX'.,X'.[.K.G.`.{.8.{ iXL.P ` ^ W.cX",
"& 2 q = , 4 4 w b f n l g l G l z n n l k 6 3 > 2 6 7 K +.R R D i q @.2.*.J e v w 5 , g n o.F F A L L G M U E R E 1.,.@.@.R @.$.",
"k w 5 4 4 q q 5 6 v m a v m v 3 @.w > , 1 % % & # = & & % * 9 w v G L O.X.X.Z i 6 2 * Y L 3 w &.% o @ < 1 w &.=.e.Y o.X.X.v =.V.",
"8Xj.q.d.*X8XeXa.,.VXtXOXvX5XXX2X)./.h.e.@.0 Y E d.(.5.>.@.&.E 5.T i.k.-.n L h.j.Y.w.1.U eXAX2X0XM.g.e.e.m.(.rXrX@Xm.ZX@X*.5XwX@X",
"4XH.w.S. XaXhX^.} nXwX(.KXcX[.[.L.>X+X3.( h ( ( p._.d.[ 5.4.U d.1.1.R.[ c ~ p.P.Z.D.6.L vXDX3X1XV.-XqX.X%XuXSXGXVXx.VX0X4.hX{.w.",
"6X(.w.Z.iXjXhXY.6.VXVX8XKXhX3X4X_.4X/.2.@.4 L c sX3Xj.j.q.z.<.p.[ +X(.1.z T (.].Z.C.7.L vXSXeX0XB.V.@X@X#X4XAXLXFX$XFX0X*.nX4X2.",
"uXd.9.Z.|.,X,XJ.` CXvX8XJXhX[.{.L.{.~.( ( d L c *X].H.d.[ f.[ G.{ ].W.,.h U (.L.Z.C.) A 6XSX5X@Xg.B.@Xx.&X=XnXGXSXXXFX0X*.hX>Xf.",
"iXk.7.Z.Q.uX,XH._ nXvX>XJXzX4X*X_.{.).,.( = L c [.[.a.,.P ,.[ 9.) ].T.[ x ~ ].`.Z.Z.{ S kXSX+X9XB.V.@Xt.E.*XeXyXVXb.FX0XR cXvXVX",
"' +.L N E ' ] T N 3.h.k.u.*.+.R L L G l q 3 R k D v w i w i v n 0 J K m v k L M h g w 3 Y @.H X...X.X.m J T %.%.=.=.z.*.a >.%.%.",
"x x N N x 6.[ 6.w.j.x.kXw Z D l Y L M n n z qXa.4.5 o % % o + * * & , , 5 w 5 9 7 q =.n ~ q.w . o . # # + O @ 2 = @.eX1.5.[ @.E ",
"` _ ` :.` &XiXgXzX*XR.*X] <.h.' } ^ ^ / U z ].p.k.T.%X+XXX<.1.^.CXk.XXwX%X%X+XqX9X9XXXc D.J.^.( k.) +XoXq.) ].=XF.R.4X].fXgXaX:X",
"3.0.q.0.6.!.|.|.iX*X[.zXK.i.i.s.{._.sX{.).Y zXH.6X(.*XsXeXa.H.J.JX).%XkXsXuX*X5X$XtXj.h Z.=XpX8.[.9.J.=X(.7._.iX}.uXzXL.(.{.,X].",
"2.t.l.l.7.J.P.P.P.fX[.nXp.W u.d.*X{.sX X).I fXp.6XcXuX4X6X8.H.J.JX%X6XCXfXfX4XLX#XeX5.c C.=X4X[ ].{ L.=X!.9.dX=X}.uXnXK.,.j.k.a.",
"&X%X(.E.W.`. X X{.{._.,X] #.*.k.pX,XiX|.~.n [.} 4XdX{.4X6X8.S.`.JX%X6XnX'.uX{.JX5XeXh.c C.=X4X` `.7.{.=X!.H.dX XF.{.sXW.k.R.].(.",
"q.q.a.,.t.E.].[.{._.L.uX} W *.s.>X,X{.L.(.L *Xp.*X[.[.[.*X[ 7._.SX^.6XzX_.uX[.DX5X5X$Xc _ !.*X) Q.{ ].].J.} {. XZ._.4X(.*X XiX4X",
"5 q v v m G R L P A L 5.A v e D Q >.A c L 9 R n R @.Y +.@.z c U i.>.2.h.>.1.>.f.*.$.o.w h T E z L z E @.E P ,.( V 8.d.( ' <.,.,.",
"%.5 + . . %.g.O + + $ $ % D p 8 7 5 n +.&.w G Y >.E @.5 , q q q a J O.%.%.X.Z e 7 4 3 m r.5.f.f.& O @ : 1 q 5 + k oXL . < 8 % l ",
"z.rXx.5.N.+.rXE L l.K c.V.0XrX5.5.qXOX4.g.J x.q.>.h ( .X@X4.O.6 n -.E l.g.X.H R -.n @.$.g.l.z.N.6 +.&.s  .X.s : i /.A X < w 2.5.",
"BXbX(.(.vXE +X6XS.R.( l.wX/.5X9.8.5Xb.&.g.G T.eX$.n ( $X/.~.q.d h N ~ T.j.4 g.l.s.( Y $.g.u.f.z.n @Xm.8 p H p ; v >X' X % z [ 6.",
"VXMX].R.wX3.m.yX].{ j.f.VX@XVXq.j.FXN.=.g.E zXkXr.O.O.oX9X7X5.4 n M ~ /.q.k B.G 8.~ -.*.u.u.u.l.b @Xz.v >.a.$.: k <X] . o 5.M >.",
"yXbX^.R.wX,.+.V.dX{ [.OXVXOXvXd.8.SXb.*.g.' hX6X4.b T oX#XeX1.f c c ! R.[ $.g.= w.V -.%.u.u.u.V.b V.z.( 4XfX^.% j U.^ . q l.z R ",
"rX;Xp.s.eX>.O.D vXJ.D.zXVXXXVXd.9.DX/.&.g.Q cX7XY g P $XtX+X1.g h x ! ^.8.z.H = 5.M b %.u.g.*.V.v m.z.L ^.I.H.o 0 [.'   &.M z L ",
"&.4.R R 4.n J 7 &.@.x @.f.%.e.>.E l.&.O.X.i @.R v 6 6 o.O.n z 3 w k M -.@.Y , 3 G w a D Q I D +.5 Y J a +.@.R & w i.I > m 2 2 6 ",
"H , %.&.o.v BXBXyXBX$.9 + X Y /./.rXBXV.i , + & J # @ o . k 0 , q 5 t 5 5 1 q 7 * > : R /.@.-.@ . . . o + + o : % % > , > > : 3 ",
"0Xi.2XVX2XR u.i.OXOXi.*.j.,.d._.[.cXdX3XXXg U +Xx.w.d.k.c 6.8.a.i.4.E a.a.n E n K h.O.Y ~.w.E.q.k.k.f.R ( T.2Xh.x.x.x.k.k.2Xg.@X",
"2Xa.8.3X).U &.i.Q ^ s.g.[.I.[.uX`.uX{.].XXz H.nXcX XfXdX*XL.G.uX4X9.} '. X,.7.6.h.d.tX-.>Xp.6X_.uXdX5Xs.S._.KXR.*XdXfXuX{.4Xk.tX",
"7Xs.(.SX8XQ G Q a.a.T.$.U.L.{.fX{.>X4X].XXz S.nXMXiXjXpX{.R.G.,XaX^.8.`.{.-.` 8.^.jXeX' :X9.vXdX*X8X5Xw.S.R.DX+XkXnXfXaXuXJX/.tX",
"7X8.R.KXeXE G Q /.a.a.W _._.].>X_._.>X_.N.h S.nXMXaXaX:X'.K.G.,XaXR.8.'.'.E ) [ R.jX8XR [.} kXfX{.wX&XS.S.{.DX).zXzX{.pX>XLX/.eX",
"7X[ T.DXeXE L Q v.1.a.Q ^.L.R.{.G._.>X^.b.h } nXMX:X:X:X'.L.G.`.uXH.{ '.|.~ / ^ T.nXkXP ^.8.dX[.{.6X&X7.7.*XDX(.zXuX[.uX[.LXb.tX",
"Q z E k.h.z g z Q ' >.R 1.[ [ s.] <.1.<.Y = U E.~.p.p.s.9.8.' s.d.w.6.K.R.>.2.>.5.k.i.n a.T h.a.1.a.q.U ~ ,./.q.j.d.s.d.s./.<.g.",
"o.. . . . . . . o o @ - @ > u w z B 6 G n 5 i : > i : % 2 , < , u a  .H O.X.X.D Z =.X.% % @ : % % : , 5 6 i m m X.X.X.m m m m p ",
"e.J O.$.4.J o.Y n G L 1.1.>.N.b.{.xXY.kXh.Z M.V.z.9X=.=.o.%.=.h.OX0X-Xm.rX-X=.N.N.NX0X6 G Y <.i.Q E O.&.>.>.$.l.l.4.W G *.rX0XV.",
"k.' W.].].l.x.E.,.t.7.`.{.].l.E.P.P.J.xX} C 0XFXwXqXV.V.5Xx..X=XcXAXBXl.tXrXu.pX4Xj.j.c { 8.R.sXE.t.l.q.{ ].6.Y.*X6.P ( B m.f.u.",
"2X>.Y.&XR.h.m.E.>.m.S.Q.'.].r.x.U.F.D.xXs.D 0XFXtX0X-XB.9XoX$XiXjXLXGXoXVXBX#.dX4Xq.t.c ( } fXpX^.j..Xz.s.[.w.dX=X8.U ~ k $X5X2X",
"#X' 9.!.].q.x.Y.,.j.D.P.'.^.4.f.Q.F.D.gX9.Z 0XmXeX9XM.M.+XXX@X{.cXLXGXOXSXBX%.pX,X3.2.j ^ [ nX4X].T.x..XK._.7.zX=X} S ~ OXLXMXMX",
"@XP { R.R.,.m.Y.) -.7.P.'.^.g.f.R.R.R.=Xq.a 0XSX%X$XM.M.3Xj.l.{.8XbXAXk.SXBXK 8XsX9XN.j ^ [ cX4X(.w.3.l.8.R.w.8X].{ x ~ 7XMXjXnX",
"g.Y T 0.-.O.=.3.T B -.8.H.8.$.+.j.5X2X+X>.9 g.@Xg.g.y.=.f.&.2.l.v.N.-Xf.9XV.D /.XXV.g.l L U /.k.q.5.@.5.5.a.$.OXY.,.( ~ 5XvXqX5X",
". .   . . 2 f g & & % @ @ @ X o % $ $ o   $ 9 & % % w H J v n a a Z Z H m p 1 2 @ o X % & & > & & % , , 3 5 q q w w 7 g Y & : @ ",
"l y p : o x V P e 8 J I m p i n v u 8 3 w 3 4.4.= * l.qX0X5.1.i J J 2.Y s s 8 : X     @.h.$.O.>.5.h.4.R @.V.g.g.b.N.u.q.k.E D Y ",
"k.M.n...- x ! ~ a 1 5.9.Y X.w P L 0 & 4 L R XX2Xl * /.eXrXq.,.= N c K.P q s p : .     a.uX8.9.L.aXnXsXd.D.FX+XkXJXcX(.uXK.6XE.5.",
"~.n.y.... N ! ~ m 1 r.w.G u 6 U T k & 4 L $./.1Xe = b.7XqX5.-.f N x H.P 8 p m l 0 &   a.'.K.7.F.aXjXsXd.7.FX+XnXJXcX[.{.L.fXT.,.",
"~.n.n.Z + N S V k 3 3.9.z > & A L k & = Y @.E.1X0 * b.VXVX4.M x N x d.c 8 > T T.R.>.@ a.:XK.9.D.fXjXsXw.7.FX+XSXMXzX].uXL.sXj.,.",
"k.y.n.H 4 ~ ) ` c h 7.S.h & = P L 0 & # n +.b.1X0 * qXLXLXqXk ! N x 9.c 7 w P R.L.L.M d.[.9._ D.'.,X{.8.` FX+XMXMXhX_. XL.uXd.[ ",
"' o.#.D @.,.[ 6.1.,.w.,.n i w n Y v 3 2 n G e.f.9 * f.5XwXr.2 P c j q.Y q +.(.~.~.K.,.8./.h.7.7.R.[.^.) ) BX/.eX8X%XR.(.p.(.a.( ",
"o X X . . X @ @ @ & , , t y p p u q 1 : @ & = 2 2 2 4 M N N M T a.v.k H e m G v l w 6 K e , 1 1 , &.g.h.&.Z H H X.o.X.X.u p u 3 ",
"3 w o.L v l 0 w G K v +.O.X.m v +.L n n 0 x ` _ ` _ ` !.!.!.!.Y.s.).G *.u.Q ' U T E Y J G g k 2 k $XbXnX~.w G L >.,.T -.0 h.q.q.",
"^ ^ w.].d.3.2.2.T a.( [ W.,.c P } L.J.Q.7.x ) 6.,.6.7.=XgXxXxX=X*X{.a.u.k.} L.G.K.H.1.U p.%Xf.a K vXAXSXh.s m O.m.x.h.i.E h.a.w.",
"U c T.^.s.1.5.5.( R.6.w.].8.P ! p.L.Z._ 7.n 2.t.l.t.0.J.P.P.P. X[.jXa.*.f.K.,X,XhXpX/.5.{ S.H.I +.GXDXKXSXD +.e.9X2XXXa.U w.w.q.",
"A h 3X{.d.T.>.k.[ H.) R.`.7.h V ^.U.Z._ 7.P oX(.].(.E.`.'.'.'.iX{.,X] W u.T.uX,XpX{.k.4.L 7.P.t.H V.XX).x.Y HXXXeXeXeXd.P 8.w.w.",
"A h 3X].p.s.E q.[ p.) R.R.{ d V ~.I.Z._ { L /.E.k.1.T._. X X{.`.Q.{.[ W *.v.>X X{._.d.4.n ~ S..X0 f.1X3Xb.oXZX@.eX8X3Xj.P q.8.8.",
"M j k.k.,.' M -.' ,.U j.j.) L N a.T.{ ) ;.g R Q 2.E >.a.Y.j.T.d.T.+X' R $.a.+X].w.9.a.R v g ^ q.>.eXbXvXeXOX2.k BXvXvXa.A >.>.( "
};
